<svg xmlns="http://www.w3.org/2000/svg" width="32" height="32" viewBox="0 0 32 32">
  <g id="_50-member" data-name="50-member" transform="translate(-1371 -808.962)">
    <g id="Group_14092" data-name="Group 14092" transform="translate(1373 812)">
      <rect id="Rectangle_7561" data-name="Rectangle 7561" width="32" height="32" rx="16" transform="translate(-2 -3.038)" fill="#ffe175"/>
    </g>
    <g id="Layer_1" transform="translate(1378.719 816.081)">
      <g id="Group_14090" data-name="Group 14090" transform="translate(0 0)">
        <g id="Group_14089" data-name="Group 14089">
          <path id="Path_34003" data-name="Path 34003" d="M2.014,13.57,1.007,7.022a.546.546,0,0,1,.868-.52L5.013,8.855a.75.75,0,0,0,1.074-.184L8.7,4.752a.7.7,0,0,1,1.161,0l2.613,3.92a.75.75,0,0,0,1.074.184L16.687,6.5a.546.546,0,0,1,.868.52L16.547,13.57Z" transform="translate(-1 -5.441)" fill="#004540"/>
          <text id="_50" data-name="50" transform="translate(8.281 18.881)" fill="#004540" font-size="12" font-family="Poppins-Bold, Poppins" font-weight="700" letter-spacing="-0.027em"><tspan x="-7.65" y="0">50</tspan></text>
        </g>
      </g>
    </g>
  </g>
</svg>
