<svg xmlns="http://www.w3.org/2000/svg" width="18.261" height="16.086" viewBox="0 0 18.261 16.086">
  <g id="_6-Check" data-name="6-Check" transform="translate(-32 -59.158)">
    <path id="Path_35045" data-name="Path 35045" d="M40.329,75.244a.4.4,0,0,1-.294-.129l-7.929-8.577a.4.4,0,0,1,.294-.672h3.816a.4.4,0,0,1,.3.138l2.65,3.049a15.182,15.182,0,0,1,1.814-2.873,26.978,26.978,0,0,1,8.69-6.974.4.4,0,0,1,.435.669,26.192,26.192,0,0,0-3.813,3.949A29.446,29.446,0,0,0,40.718,74.94a.4.4,0,0,1-.389.3Z"/>
  </g>
</svg>
