<svg xmlns="http://www.w3.org/2000/svg" width="15.508" height="15.508" viewBox="0 0 15.508 15.508">
  <path id="Adminheaderask" d="M6.448,4.836,4.509,2.9H3.54v.969L5.478,5.8Zm.969-2.908h.969V3.866H7.417Zm3.877,4.846h1.938v.969H11.294Zm.969-2.908V2.9h-.969L9.355,4.836l.969.969ZM2.571,6.774H4.509v.969H2.571Zm4.846,3.877h.969V12.59H7.417Zm-3.877,0v.969h.969L6.448,9.682l-.969-.969Zm14.326,4.634L8.233,5.652a.729.729,0,0,0-1.028,0l-.91.91a.729.729,0,0,0,0,1.028l9.634,9.634a.729.729,0,0,0,1.028,0l.91-.91A.729.729,0,0,0,17.866,15.285ZM9.84,10.167,6.932,7.259,7.9,6.29,10.809,9.2Z" transform="translate(-2.571 -1.928)" fill="#00625b"/>
</svg>
