<svg xmlns="http://www.w3.org/2000/svg" width="20.567" height="20.567" viewBox="0 0 20.567 20.567">
  <path id="Admin-Header-ask-btn" d="M7.713,5.784,5.142,3.213H3.856V4.5L6.427,7.07ZM9,1.928h1.285V4.5H9ZM14.14,8.355h2.571V9.641H14.14ZM15.425,4.5V3.213H14.14L11.569,5.784,12.854,7.07ZM2.571,8.355H5.142V9.641H2.571ZM9,13.5h1.285v2.571H9Zm-5.142,0v1.285H5.142l2.571-2.571L6.427,10.926Zm19,6.146L10.08,6.867a.967.967,0,0,0-1.363,0L7.509,8.074a.967.967,0,0,0,0,1.363L20.286,22.214a.967.967,0,0,0,1.363,0l1.207-1.207A.967.967,0,0,0,22.857,19.643ZM12.212,12.854,8.355,9,9.641,7.713,13.5,11.569Z" transform="translate(-2.571 -1.928)" fill="#ffe175"/>
</svg>
