<svg xmlns="http://www.w3.org/2000/svg" width="76.701" height="82.19" viewBox="0 0 76.701 82.19">
  <g id="adsubmit" transform="translate(-253.521 -118.766)">
    <path id="Path_20781" data-name="Path 20781" d="M380.243,176.853a2.979,2.979,0,0,1-1.7,2.927q-6.414,3.4-12.816,6.829c-5.251,2.8-10.506,5.592-15.743,8.419a.953.953,0,0,1-1.362-.219q-11.739-11.788-23.525-23.53a.85.85,0,0,1-.2-1.215q7.6-14.292,15.156-28.61c1.139-2.15,3.1-2.458,4.806-.753q17.157,17.137,34.31,34.278A3,3,0,0,1,380.243,176.853Z" transform="translate(-54.926 -16.075)" fill="#004540"/>
    <path id="Path_20782" data-name="Path 20782" d="M289.493,334.152A7.485,7.485,0,0,1,284.5,332c-2.8-2.725-5.591-5.455-8.276-8.288a8.066,8.066,0,0,1,.026-11.03c2.469-2.606,5.064-5.093,7.582-7.652.347-.353.521-.241.8.041q9.242,9.258,18.5,18.5c.374.373.37.582,0,.949-2.479,2.438-4.92,4.915-7.406,7.346A8.351,8.351,0,0,1,289.493,334.152Z" transform="translate(-15.839 -143.51)" fill="#004540"/>
    <path id="Path_20783" data-name="Path 20783" d="M394.1,416.786a6.822,6.822,0,0,1-10.875,4.919,70.719,70.719,0,0,1-5.523-5.352c-.2-.192-.246-.321.018-.532,3.261-2.608,5.986-5.776,8.98-8.663.53-.511.777-.474,1.252.026,1.315,1.385,2.691,2.712,4.039,4.066A7.2,7.2,0,0,1,394.1,416.786Z" transform="translate(-95.667 -222.179)" fill="#004540"/>
    <path id="Path_20784" data-name="Path 20784" d="M267.758,405.088c-2.3,1.115-7.113.859-10.458-2.143-3.326-2.984-4.659-7.868-3.177-11.513A92.989,92.989,0,0,0,267.758,405.088Z" transform="translate(0 -210.332)" fill="#004540"/>
    <path id="Path_20785" data-name="Path 20785" d="M516.147,157.29a2.788,2.788,0,0,1-.814,2.008c-1.812,1.817-3.613,3.645-5.447,5.439a2.726,2.726,0,1,1-3.871-3.839q2.721-2.781,5.5-5.5a2.554,2.554,0,0,1,3-.524A2.629,2.629,0,0,1,516.147,157.29Z" transform="translate(-194.136 -27.644)" fill="#004540"/>
    <path id="Path_20786" data-name="Path 20786" d="M462.743,124.24c0,.884.013,1.768,0,2.651a2.734,2.734,0,1,1-5.466.039q-.033-2.694,0-5.388a2.732,2.732,0,1,1,5.464-.039C462.762,122.415,462.742,123.328,462.743,124.24Z" transform="translate(-157.16 0)" fill="#004540"/>
    <path id="Path_20787" data-name="Path 20787" d="M546.654,226.516c.912,0,1.825-.021,2.737.005a2.731,2.731,0,0,1-.016,5.461q-2.736.045-5.473,0a2.732,2.732,0,1,1,.016-5.464C544.829,226.5,545.742,226.516,546.654,226.516Z" transform="translate(-221.875 -83.111)" fill="#004540"/>
  </g>
</svg>
