<svg xmlns="http://www.w3.org/2000/svg" width="14.626" height="14.626" viewBox="0 0 14.626 14.626">
  <g id="analytic" transform="translate(-2.5 -2.5)">
    <path id="Path_34822" data-name="Path 34822" d="M2.5,56.659H5.325v6.288H2.5Z" transform="translate(0 -45.821)" fill="#2f2f31"/>
    <path id="Path_34823" data-name="Path 34823" d="M27.952,34.463h2.825v9.7H27.952Z" transform="translate(-21.534 -27.042)" fill="#2f2f31"/>
    <path id="Path_34824" data-name="Path 34824" d="M53.4,56.659h2.825v6.288H53.4Z" transform="translate(-43.066 -45.821)" fill="#2f2f31"/>
    <path id="Path_34825" data-name="Path 34825" d="M78.855,34.463H81.68v9.7H78.855Z" transform="translate(-64.6 -27.042)" fill="#2f2f31"/>
    <path id="Path_34826" data-name="Path 34826" d="M4.915,8.378a1.486,1.486,0,0,0,.319-1.549L7.147,5.143a1.319,1.319,0,0,0,1.412,0l1.914,1.686A1.426,1.426,0,0,0,12.8,8.378a1.486,1.486,0,0,0,.319-1.549L15.03,5.143a1.383,1.383,0,0,0,1.686-.228,1.418,1.418,0,0,0-2-2,1.486,1.486,0,0,0-.319,1.549L12.433,6.191a1.544,1.544,0,0,0-1.412,0L9.107,4.5A1.415,1.415,0,0,0,6.783,3,1.409,1.409,0,0,0,6.51,4.459L4.6,6.191a1.375,1.375,0,0,0-1.686.182,1.418,1.418,0,0,0,2,2Z" transform="translate(0)" fill="#2f2f31"/>
  </g>
</svg>
