<svg xmlns="http://www.w3.org/2000/svg" width="84" height="84" viewBox="0 0 84 84">
  <g id="announce" transform="translate(-911 -424)">
    <circle id="Ellipse_2265" data-name="Ellipse 2265" cx="42" cy="42" r="42" transform="translate(911 424)" fill="#00443f"/>
    <path id="marketing" d="M46.866,37.65a3.452,3.452,0,0,1,1.166,6.114L44.6,37.813a3.44,3.44,0,0,1,2.271-.163ZM25.444,60.125l4.8-2.769L23.922,46.429l-4.789,2.765a6.311,6.311,0,0,0,6.311,10.931Zm10,6.269L31.421,59.42l-3.759,2.17,4.026,6.975a2.171,2.171,0,0,0,3.76-2.17ZM50.424,52.663,38.085,31.292a1.326,1.326,0,0,0-1.19-.69h-.029a1.329,1.329,0,0,0-1.194.734c-.434.818-.852,1.692-1.294,2.617-1.862,3.889-3.956,8.261-8.416,11.252l6.357,11c4.816-2.364,9.648-1.992,13.944-1.66,1.024.079,1.99.154,2.917.188a1.379,1.379,0,0,0,1.245-2.068Zm-3.1-21.943a1.189,1.189,0,1,0,2.059,1.189l2.456-4.253a1.189,1.189,0,0,0-2.059-1.189L47.322,30.72ZM61.639,43.76a1.19,1.19,0,0,0-1.192-1.189H55.537a1.189,1.189,0,0,0,0,2.378h4.909A1.189,1.189,0,0,0,61.639,43.76ZM58.8,33.582a1.188,1.188,0,0,0-1.623-.435l-4.357,2.515a1.189,1.189,0,1,0,1.189,2.06l4.355-2.515a1.188,1.188,0,0,0,.436-1.624Z" transform="translate(915.063 418.239)" fill="#fff" fill-rule="evenodd"/>
  </g>
</svg>
