<svg xmlns="http://www.w3.org/2000/svg" width="55" height="55" viewBox="0 0 55 55">
  <g id="anyone" transform="translate(-710.563 -449)">
    <circle id="Ellipse_3059" data-name="Ellipse 3059" cx="27.5" cy="27.5" r="27.5" transform="translate(710.563 449)" fill="#f4f2ee"/>
    <path id="Icon_awesome-globe-americas" data-name="Icon awesome-globe-americas" d="M14,.563a14,14,0,1,0,14,14A14,14,0,0,0,14,.563Zm4.645,20.186c-.22.219-.451.449-.638.637a1.349,1.349,0,0,0-.348.6c-.085.32-.154.642-.269.952l-.982,2.645A11.281,11.281,0,0,1,14,25.852V24.306a4.226,4.226,0,0,0-1.277-2.893,1.806,1.806,0,0,1-.529-1.277V18.329a1.8,1.8,0,0,0-.929-1.579c-.811-.449-1.965-1.076-2.755-1.474a8.137,8.137,0,0,1-1.787-1.228l-.045-.041a6.48,6.48,0,0,1-1.019-1.171C5.128,12.06,4.265,10.781,3.7,9.95A11.351,11.351,0,0,1,9.53,4.2l1.355.678a.9.9,0,0,0,1.307-.808V3.431a11.282,11.282,0,0,1,1.377-.137l1.6,1.6a.9.9,0,0,1,0,1.277l-.265.264-.584.584a.452.452,0,0,0,0,.638l.265.265a.452.452,0,0,1,0,.638l-.452.452a.452.452,0,0,1-.32.132h-.507a.451.451,0,0,0-.315.128l-.56.545a.452.452,0,0,0-.089.526l.88,1.761a.452.452,0,0,1-.4.654H12.5a.451.451,0,0,1-.3-.111l-.524-.455a.9.9,0,0,0-.878-.175l-1.76.587a.675.675,0,0,0-.088,1.244l.625.313a3.823,3.823,0,0,0,1.711.4c.594,0,1.275,1.541,1.806,1.806h3.768a1.807,1.807,0,0,1,1.277.529l.773.773a1.722,1.722,0,0,1,.5,1.218,2.627,2.627,0,0,1-.774,1.862Zm4.895-5.157a1.355,1.355,0,0,1-.8-.563l-1.015-1.522a1.353,1.353,0,0,1,0-1.5l1.106-1.658a1.353,1.353,0,0,1,.522-.46l.733-.366A10.936,10.936,0,0,1,25.187,16Z" transform="translate(724.064 461.938)" fill="#707070"/>
  </g>
</svg>
