<svg xmlns="http://www.w3.org/2000/svg" width="11.032" height="14.12" viewBox="0 0 11.032 14.12">
  <g id="arrow-job-detail" transform="translate(-55.997 0.001)">
    <g id="Group_15859" data-name="Group 15859" transform="translate(55.997 -0.001)">
      <g id="Group_15858" data-name="Group 15858" transform="translate(0 0)">
        <path id="Path_35013" data-name="Path 35013" d="M57.093,14.12a1.1,1.1,0,0,1-.215-.021,1.085,1.085,0,0,1-.7-.471A1.1,1.1,0,0,1,56.1,12.56l2.216-5.5L56.079,1.513a1.105,1.105,0,0,1,.6-1.432,1.085,1.085,0,0,1,1.018.1l8.846,5.959a1.109,1.109,0,0,1,.3,1.526,1.09,1.09,0,0,1-.317.316L57.7,13.934A1.079,1.079,0,0,1,57.093,14.12Zm0-13.569a.536.536,0,0,0-.2.04.552.552,0,0,0-.3.716l2.276,5.649a.276.276,0,0,1,0,.206l-2.26,5.61-.005.012a.554.554,0,0,0,.04.54.537.537,0,0,0,.345.233.531.531,0,0,0,.4-.081l8.833-5.95,0,0a.541.541,0,0,0,.159-.158.555.555,0,0,0-.151-.764L57.39.642a.534.534,0,0,0-.3-.091Z" transform="translate(-55.997 0.001)" fill="#004540"/>
      </g>
    </g>
    <path id="Path_35014" data-name="Path 35014" d="M160.688,127.582l5.563-3.748-5.563-3.748,1.51,3.748Z" transform="translate(-101.804 -116.775)" fill="#004540" fill-rule="evenodd"/>
  </g>
</svg>
