<svg id="back-icon" xmlns="http://www.w3.org/2000/svg" width="39" height="39" viewBox="0 0 39 39">
  <g id="Rectangle_682" data-name="Rectangle 682" fill="#fff" stroke="#707070" stroke-width="1">
    <rect width="39" height="39" rx="5" stroke="none"/>
    <rect x="0.5" y="0.5" width="38" height="38" rx="4.5" fill="none"/>
  </g>
  <g id="Group_62" data-name="Group 62" transform="translate(12.387 14)">
    <path id="Path_277" data-name="Path 277" d="M577.282,166.581c-.259.252-.551.465-.83.693q-2.876,2.346-5.756,4.687c-.076.062-.087.094,0,.162q3.264,2.663,6.525,5.33c.021.017.044.03.068.047.037-.052.02-.1.02-.152,0-1.017,0-2.034,0-3.051,0-.119.019-.157.15-.144a7.571,7.571,0,0,1,6.327,4.221c.376.716.649,1.486.97,2.231.025.059.053.118.083.186a.131.131,0,0,0,.023-.109c0-.933,0-1.867,0-2.8a7.974,7.974,0,0,0-6.521-7.8,6.676,6.676,0,0,0-.911-.113c-.081,0-.122-.022-.121-.12,0-1.091,0-2.182.005-3.273Z" transform="translate(-570.635 -166.581)"/>
  </g>
</svg>
