<svg xmlns="http://www.w3.org/2000/svg" width="23.207" height="21.351" viewBox="0 0 23.207 21.351">
  <g id="comment" transform="translate(-0.001 1.332)">
    <path id="Path_24453" data-name="Path 24453" d="M20.017-1.332H3.191A3.194,3.194,0,0,0,0,1.858v10.3A3.194,3.194,0,0,0,3.18,15.346v4.673L9.9,15.346H20.017a3.194,3.194,0,0,0,3.191-3.191V1.858a3.194,3.194,0,0,0-3.191-3.191Zm1.831,13.488a1.833,1.833,0,0,1-1.831,1.831H9.468L4.54,17.416v-3.43H3.191A1.833,1.833,0,0,1,1.36,12.156V1.858A1.833,1.833,0,0,1,3.191.028H20.017a1.833,1.833,0,0,1,1.831,1.831Zm0,0" fill="#707070"/>
    <path id="Path_24454" data-name="Path 24454" d="M171.293,131.172h10.784v1.36H171.293Zm0,0" transform="translate(-165.081 -127.699)" fill="#707070"/>
    <path id="Path_24455" data-name="Path 24455" d="M171.293,211.172h10.784v1.36H171.293Zm0,0" transform="translate(-165.081 -204.798)" fill="#707070"/>
    <path id="Path_24456" data-name="Path 24456" d="M171.293,291.172h10.784v1.36H171.293Zm0,0" transform="translate(-165.081 -281.898)" fill="#707070"/>
  </g>
</svg>
