<svg xmlns="http://www.w3.org/2000/svg" width="84" height="84" viewBox="0 0 84 84">
  <g id="completejob-icon" transform="translate(-911 -424)">
    <circle id="completejob-icon-2" data-name="completejob-icon" cx="42" cy="42" r="42" transform="translate(911 424)" fill="#ffe175"/>
    <g id="Group_12970" data-name="Group 12970" transform="translate(930.299 404.415)">
      <path id="Path_23703" data-name="Path 23703" d="M183.91,51.18a1.893,1.893,0,0,1-1.892-1.892V46.451h-7.567v2.838a1.892,1.892,0,1,1-3.784,0V46.451a3.787,3.787,0,0,1,3.784-3.784h7.567a3.787,3.787,0,0,1,3.784,3.784v2.838A1.893,1.893,0,0,1,183.91,51.18Z" transform="translate(-155.533 0)" fill="#202020"/>
      <path id="Path_23704" data-name="Path 23704" d="M24.045,255.006a3.9,3.9,0,0,1-1.343.227,4.146,4.146,0,0,1-1.457-.265L0,247.893v14.435a5.2,5.2,0,0,0,5.2,5.2h35a5.2,5.2,0,0,0,5.2-5.2V247.893Z" transform="translate(0 -187.027)" fill="#202020"/>
      <path id="Path_23705" data-name="Path 23705" d="M45.4,111.869V116.2l-22.248,7.416a1.4,1.4,0,0,1-.908,0L0,116.2v-4.332a5.2,5.2,0,0,1,5.2-5.2h35A5.2,5.2,0,0,1,45.4,111.869Z" transform="translate(0 -58.325)" fill="#202020"/>
    </g>
  </g>
</svg>
