<svg xmlns="http://www.w3.org/2000/svg" width="15.086" height="13.41" viewBox="0 0 15.086 13.41">
  <path id="Icon_metro-users" data-name="Icon metro-users" d="M12.629,15.234v-.691A3.743,3.743,0,0,0,14.3,11.429c0-2.083,0-3.771-2.514-3.771S9.276,9.346,9.276,11.429a3.743,3.743,0,0,0,1.676,3.114v.691c-2.843.232-5.029,1.629-5.029,3.318H17.657c0-1.689-2.186-3.086-5.029-3.318Zm-5.772.324A7.962,7.962,0,0,1,9.472,14.5a4.728,4.728,0,0,1-.53-.773,4.8,4.8,0,0,1-.609-2.3,7.441,7.441,0,0,1,.4-3.061A2.729,2.729,0,0,1,10.819,6.8c-.221-1-.811-1.66-2.381-1.66-2.514,0-2.514,1.689-2.514,3.771A3.743,3.743,0,0,0,7.6,12.029v.691c-2.843.232-5.029,1.629-5.029,3.318H6.225a5.368,5.368,0,0,1,.631-.48Z" transform="translate(-2.571 -5.143)" fill="#00443f"/>
</svg>
