<svg xmlns="http://www.w3.org/2000/svg" xmlns:xlink="http://www.w3.org/1999/xlink" width="94" height="94" viewBox="0 0 94 94">
  <defs>
    <linearGradient id="linear-gradient" x1="0.5" x2="0.5" y2="1" gradientUnits="objectBoundingBox">
      <stop offset="0" stop-color="#004f49"/>
      <stop offset="1" stop-color="#009b8f"/>
    </linearGradient>
  </defs>
  <g id="cooking" transform="translate(-811 -3530)">
    <g id="Group_13864" data-name="Group 13864" transform="translate(811 3530)">
      <g id="Group_13859" data-name="Group 13859">
        <rect id="Rectangle_7561" data-name="Rectangle 7561" width="94" height="94" rx="47" fill="url(#linear-gradient)"/>
      </g>
    </g>
    <g id="hot-pot" transform="translate(834.752 3553.008)">
      <g id="b103_soup">
        <path id="Path_24485" data-name="Path 24485" d="M33.9,13.474H23.97a1.626,1.626,0,1,0,0-3.251H19.909a1.626,1.626,0,1,0,0,3.251H9.976c-2.763,0-5.051,2.477-5.5,5.113H39.4C38.955,15.95,36.666,13.474,33.9,13.474Z" transform="translate(1.432 3.266)" fill="#fff"/>
        <path id="Path_24486" data-name="Path 24486" d="M40.914,18.789v-.464H0V20.65H5.829V35.058a5.579,5.579,0,0,0,5.579,5.581H35.335a5.578,5.578,0,0,0,5.581-5.581V21.115H46.5V18.789Z" transform="translate(0 5.855)" fill="#fff"/>
        <path id="Path_24487" data-name="Path 24487" d="M11.454,5.588a7.976,7.976,0,0,0,.516.614l.45.451c.285.286.55.573.761.83a3.78,3.78,0,0,1,.257.354.689.689,0,0,1,.132.294.7.7,0,0,1-.176.459,2.79,2.79,0,0,1-.511.484,1.643,1.643,0,0,0,.8.092,1.406,1.406,0,0,0,.855-.43,1.691,1.691,0,0,0,.424-1.023,2.836,2.836,0,0,0-.11-.969,5.1,5.1,0,0,0-.719-1.477c-.144-.211-.322-.425-.449-.59-.127-.149-.244-.3-.351-.454a4.348,4.348,0,0,1-.854-1.793A4.485,4.485,0,0,1,12.884,0a3,3,0,0,0-2.218,2.255,3.607,3.607,0,0,0,.042,1.8A4.878,4.878,0,0,0,11.454,5.588Z" transform="translate(3.379 -0.001)" fill="#fff"/>
        <path id="Path_24488" data-name="Path 24488" d="M16.023,5.588c.162.214.336.42.516.614l.449.451c.285.286.549.573.765.83.1.129.189.252.255.354a.626.626,0,0,1,.129.294.683.683,0,0,1-.173.459,2.688,2.688,0,0,1-.513.484,1.659,1.659,0,0,0,.8.092,1.4,1.4,0,0,0,.855-.43,1.685,1.685,0,0,0,.425-1.023,2.837,2.837,0,0,0-.108-.969A5.169,5.169,0,0,0,18.7,5.268c-.141-.211-.321-.425-.447-.59-.124-.149-.244-.3-.348-.454a4.338,4.338,0,0,1-.856-1.793A4.484,4.484,0,0,1,17.449,0a3,3,0,0,0-2.214,2.255,3.607,3.607,0,0,0,.041,1.8A4.865,4.865,0,0,0,16.023,5.588Z" transform="translate(4.839 0)" fill="#fff"/>
        <path id="Path_24489" data-name="Path 24489" d="M20.186,5.588A7.673,7.673,0,0,0,20.7,6.2l.45.451c.285.286.548.573.761.83a3.78,3.78,0,0,1,.257.354.722.722,0,0,1,.132.294.688.688,0,0,1-.176.459,2.688,2.688,0,0,1-.513.484,1.652,1.652,0,0,0,.8.092,1.413,1.413,0,0,0,.858-.43,1.69,1.69,0,0,0,.422-1.023,2.8,2.8,0,0,0-.108-.969,5.062,5.062,0,0,0-.719-1.477c-.144-.211-.322-.425-.449-.59-.127-.149-.245-.3-.351-.454a4.328,4.328,0,0,1-.852-1.793A4.49,4.49,0,0,1,21.612,0,3,3,0,0,0,19.4,2.256a3.622,3.622,0,0,0,.042,1.8A4.8,4.8,0,0,0,20.186,5.588Z" transform="translate(6.169 -0.001)" fill="#fff"/>
      </g>
    </g>
  </g>
</svg>
