<svg xmlns="http://www.w3.org/2000/svg" width="19.164" height="19.164" viewBox="0 0 19.164 19.164">
  <path id="cross-icon" d="M21.56,17.324h0L15.746,11.51,21.559,5.7h0a.6.6,0,0,0,0-.847L18.813,2.1a.6.6,0,0,0-.847,0h0L12.153,7.917,6.339,2.1h0a.6.6,0,0,0-.847,0L2.746,4.849a.6.6,0,0,0,0,.847h0L8.559,11.51,2.746,17.324h0a.6.6,0,0,0,0,.847l2.746,2.746a.6.6,0,0,0,.847,0h0L12.153,15.1l5.814,5.814h0a.6.6,0,0,0,.847,0l2.746-2.746a.6.6,0,0,0,0-.847Z" transform="translate(-2.571 -1.928)" fill="#00443f"/>
</svg>
