<svg xmlns="http://www.w3.org/2000/svg" width="33" height="33" viewBox="0 0 33 33">
  <g id="declineReason" transform="translate(-0.233 0.003)">
    <g id="Layer_1" data-name="Layer 1" transform="translate(0 -0.236)">
      <g id="Question_mark" data-name="Question mark">
        <g id="BG">
          <rect id="Rectangle_8052" data-name="Rectangle 8052" width="33" height="33" rx="16.5" transform="translate(0.233 0.233)" fill="#00443f"/>
        </g>
        <path id="Path_34825" data-name="Path 34825" d="M167.67,127.044a4.13,4.13,0,0,1,.7-2.2A5.366,5.366,0,0,1,170.4,123a6.4,6.4,0,0,1,3.119-.731,6.66,6.66,0,0,1,2.925.611,4.742,4.742,0,0,1,1.96,1.662,4.078,4.078,0,0,1,.691,2.285,3.531,3.531,0,0,1-.394,1.7,5.205,5.205,0,0,1-.937,1.262q-.543.531-1.948,1.788a7.949,7.949,0,0,0-.623.623,2.528,2.528,0,0,0-.348.491,2.389,2.389,0,0,0-.177.446q-.063.223-.189.783a1.271,1.271,0,0,1-1.359,1.188,1.389,1.389,0,0,1-1-.388,1.524,1.524,0,0,1-.406-1.154,4.053,4.053,0,0,1,1.085-2.9,18.044,18.044,0,0,1,1.325-1.262q.731-.64,1.057-.965a3.274,3.274,0,0,0,.548-.725,1.754,1.754,0,0,0,.223-.868,2.019,2.019,0,0,0-.68-1.542,2.483,2.483,0,0,0-1.754-.628,2.426,2.426,0,0,0-1.851.634,5.056,5.056,0,0,0-1.005,1.868q-.389,1.292-1.474,1.292a1.448,1.448,0,0,1-1.08-.451A1.381,1.381,0,0,1,167.67,127.044Zm5.575,12.522a1.8,1.8,0,0,1-1.217-.451,1.582,1.582,0,0,1-.52-1.262,1.626,1.626,0,0,1,.5-1.211,1.7,1.7,0,0,1,1.234-.492,1.678,1.678,0,0,1,1.7,1.7,1.6,1.6,0,0,1-.514,1.257A1.735,1.735,0,0,1,173.245,139.565Z" transform="translate(-156.827 -114.006)" fill="#fff"/>
      </g>
    </g>
  </g>
</svg>
