<svg xmlns="http://www.w3.org/2000/svg" width="24.911" height="21.309" viewBox="0 0 24.911 21.309">
  <g id="discuss" transform="translate(0 -37.019)">
    <path id="Path_24507" data-name="Path 24507" d="M120.709,44.512V43.1a2.436,2.436,0,0,1,2.433-2.433h6.933V37.992a.973.973,0,0,0-.973-.973H117.473a.973.973,0,0,0-.973.973v6.52Z" transform="translate(-110.832)" fill="#fffcf1"/>
    <path id="Path_24508" data-name="Path 24508" d="M12.31,228.317a2.436,2.436,0,0,1-2.433-2.433v-4.866H.973a.973.973,0,0,0-.973.973v7.736a.973.973,0,0,0,.973.973H3.552v2.187a.487.487,0,0,0,.489.487.48.48,0,0,0,.291-.1L7.749,230.7H12.6a.973.973,0,0,0,.973-.973v-1.411H12.31Z" transform="translate(0 -175.047)" fill="#fffcf1"/>
    <path id="Path_24509" data-name="Path 24509" d="M245.6,142.019H233.973a.973.973,0,0,0-.973.973v7.736a.973.973,0,0,0,.973.973h4.853l3.418,2.575a.479.479,0,0,0,.291.1.487.487,0,0,0,.489-.487V151.7H245.6a.973.973,0,0,0,.973-.973v-7.736A.973.973,0,0,0,245.6,142.019Z" transform="translate(-221.663 -99.891)" fill="#fffcf1"/>
  </g>
</svg>
