<svg xmlns="http://www.w3.org/2000/svg" width="44" height="45" viewBox="0 0 44 45">
  <g id="edit-profile" transform="translate(-1258.818 -380.999)">
    <g id="Icon_awesome-edit" data-name="Icon awesome-edit" transform="translate(1258.818 380.999)">
      <rect id="Rectangle_7603" data-name="Rectangle 7603" width="44" height="45" rx="22" fill="#707070" opacity="0.12"/>
      <path id="Icon_awesome-edit-2" data-name="Icon awesome-edit" d="M25.476,5.266l5.708,5.708a.619.619,0,0,1,0,.873l-13.82,13.82-5.872.652a1.231,1.231,0,0,1-1.361-1.361l.652-5.872L24.6,5.266A.619.619,0,0,1,25.476,5.266ZM35.728,3.816,32.64.728a2.475,2.475,0,0,0-3.493,0l-2.24,2.24a.619.619,0,0,0,0,.873L32.614,9.55a.619.619,0,0,0,.873,0l2.24-2.24a2.475,2.475,0,0,0,0-3.493Z" transform="translate(-1.287 9.089)" fill="#464646"/>
    </g>
  </g>
</svg>
