<svg id="email-icon" xmlns="http://www.w3.org/2000/svg" width="19.012" height="16.271" viewBox="0 0 19.012 16.271">
  <path id="Path_24012" data-name="Path 24012" d="M133.012,332.982v9.967a.125.125,0,0,0-.021.034,1.823,1.823,0,0,1-1.9,1.7h-7.666q-3.787,0-7.573,0a1.708,1.708,0,0,1-1.317-.57,2.366,2.366,0,0,1-.532-1.163v-9.967a.477.477,0,0,1,.082.041l7.7,5.866a2.584,2.584,0,0,0,3.445,0q3.443-2.619,6.884-5.24C132.41,333.423,132.712,333.2,133.012,332.982Z" transform="translate(-114 -328.409)" fill="#202020"/>
  <path id="Path_24013" data-name="Path 24013" d="M114,254.394v-.551c.031-.121.057-.244.092-.363a1.79,1.79,0,0,1,1.776-1.368h15.276c.056,0,.111,0,.167,0a1.8,1.8,0,0,1,1.608,1.366c.035.119.062.241.092.362v.551a2.175,2.175,0,0,1-.793,1.35q-3.846,2.92-7.688,5.849a1.558,1.558,0,0,1-2.064-.011q-3.836-2.92-7.671-5.84a1.946,1.946,0,0,1-.764-1.273A.363.363,0,0,0,114,254.394Z" transform="translate(-114 -252.111)" fill="#202020"/>
</svg>
