<svg xmlns="http://www.w3.org/2000/svg" width="36.904" height="24.603" viewBox="0 0 36.904 24.603">
  <path id="eyeGreen" d="M36.681,15.866A20.549,20.549,0,0,0,18.452,4.5,20.553,20.553,0,0,0,.223,15.867a2.073,2.073,0,0,0,0,1.87A20.549,20.549,0,0,0,18.452,29.1,20.553,20.553,0,0,0,36.681,17.736,2.073,2.073,0,0,0,36.681,15.866ZM18.452,26.027A9.226,9.226,0,1,1,27.678,16.8,9.226,9.226,0,0,1,18.452,26.027Zm0-15.377a6.106,6.106,0,0,0-1.622.243,3.066,3.066,0,0,1-4.286,4.286,6.137,6.137,0,1,0,5.908-4.529Z" transform="translate(0 -4.5)" fill="#00443f"/>
</svg>
