<svg xmlns="http://www.w3.org/2000/svg" xmlns:xlink="http://www.w3.org/1999/xlink" width="94" height="94" viewBox="0 0 94 94">
  <defs>
    <linearGradient id="linear-gradient" x1="0.5" x2="0.5" y2="1" gradientUnits="objectBoundingBox">
      <stop offset="0" stop-color="#004f49"/>
      <stop offset="1" stop-color="#009b8f"/>
    </linearGradient>
  </defs>
  <g id="female" transform="translate(-397 -3530)">
    <g id="Group_13853" data-name="Group 13853" transform="translate(397 3530)">
      <rect id="Rectangle_7561" data-name="Rectangle 7561" width="94" height="94" rx="47" fill="url(#linear-gradient)"/>
    </g>
    <g id="male-gender" transform="translate(420.721 3555.5)">
      <path id="Path_24473" data-name="Path 24473" d="M45.8,1.7H32a2.476,2.476,0,0,0-2.5,2.5A2.476,2.476,0,0,0,32,6.7h7.7l-9.2,9.2A18.037,18.037,0,1,0,34,19.4l9.2-9.2V18a2.5,2.5,0,1,0,5,0V4.2a2.336,2.336,0,0,0-2.4-2.5ZM29,39.508A13.083,13.083,0,1,1,29,21,13.1,13.1,0,0,1,29,39.508Z" transform="translate(-1.65 -1.7)" fill="#fff"/>
    </g>
  </g>
</svg>
