<svg xmlns="http://www.w3.org/2000/svg" width="14.15" height="14.15" viewBox="0 0 14.15 14.15">
  <g id="flag" transform="translate(0 -1.883)">
    <path id="Icon_metro-flag" data-name="Icon metro-flag" d="M2.571,1.928H4.339v14.15H2.571Zm11.5,8.885a4.564,4.564,0,0,0,2.653-.684V3.054a4.563,4.563,0,0,1-2.653.684,4.563,4.563,0,0,1-2.653-.684v7.075A4.564,4.564,0,0,0,14.068,10.813Zm-3.1-8.436a7.1,7.1,0,0,0-2.653-.449,6.007,6.007,0,0,0-3.1.684V9.687A6.007,6.007,0,0,1,8.319,9a7.1,7.1,0,0,1,2.653.449V2.378Z" transform="translate(-2.571 -0.045)" fill="#00443f"/>
  </g>
</svg>
