<svg xmlns="http://www.w3.org/2000/svg" width="85.777" height="89.027" viewBox="0 0 85.777 89.027">
  <g id="flowers" transform="translate(-9.351)">
    <g id="celebration_firework" transform="translate(9.351 0)">
      <path id="Path_34199" data-name="Path 34199" d="M36.59,282.092l35.886-14.761a1.763,1.763,0,0,0,.73-2.608,67.834,67.834,0,0,0-9.632-12.744,62.424,62.424,0,0,0-12.275-9.2,1.758,1.758,0,0,0-2.573.748L33.947,279.45A2.08,2.08,0,0,0,36.59,282.092Z" transform="translate(-29.557 -200.34)" fill="#fcb424"/>
      <path id="Path_34200" data-name="Path 34200" d="M148.436,266.208c-1.061,1.061-7.389-2.99-14-9.6s-10.658-12.953-9.615-14.014c1.061-1.061,7.424,2.956,14.048,9.58S149.48,265.164,148.436,266.208Z" transform="translate(-104.613 -200.277)" fill="#d67909"/>
      <path id="Path_34201" data-name="Path 34201" d="M64.966,380.623l-8.38,3.46-6.485-6.5,3.443-8.38Z" transform="translate(-43.015 -305.008)" fill="#ed3f03"/>
      <path id="Path_34202" data-name="Path 34202" d="M109.82,302.177l-8.38,3.443L86,290.18l3.443-8.38Z" transform="translate(-72.673 -232.804)" fill="#ed3f03"/>
      <g id="Group_15407" data-name="Group 15407" transform="translate(3.781 6.781)">
        <circle id="Ellipse_3091" data-name="Ellipse 3091" cx="2.573" cy="2.573" r="2.573" transform="translate(10.936 10.936)" fill="#fcb424"/>
        <path id="Path_34203" data-name="Path 34203" d="M96.573,39a2.567,2.567,0,0,1,2.573,2.573V46.3A2.573,2.573,0,0,1,94,46.3V41.573A2.579,2.579,0,0,1,96.573,39Z" transform="translate(-83.064 -39)" fill="#fcb424"/>
        <path id="Path_34204" data-name="Path 34204" d="M33.673,101.9H38.4a2.573,2.573,0,1,1,0,5.146H33.673a2.573,2.573,0,0,1,0-5.146Z" transform="translate(-31.1 -90.964)" fill="#fcb424"/>
        <path id="Path_34205" data-name="Path 34205" d="M96.573,137.6a2.567,2.567,0,0,1,2.573,2.573V144.9a2.573,2.573,0,0,1-5.146,0v-4.729A2.579,2.579,0,0,1,96.573,137.6Z" transform="translate(-83.064 -120.457)" fill="#fcb424"/>
        <path id="Path_34206" data-name="Path 34206" d="M132.273,101.9H137a2.573,2.573,0,0,1,0,5.146h-4.729a2.573,2.573,0,0,1,0-5.146Z" transform="translate(-112.557 -90.964)" fill="#fcb424"/>
      </g>
      <circle id="Ellipse_3092" data-name="Ellipse 3092" cx="2.573" cy="2.573" r="2.573" transform="translate(69.694 64.783)" fill="#00c853"/>
      <path id="Path_34207" data-name="Path 34207" d="M412.773,309.7a2.567,2.567,0,0,1,2.573,2.573V317a2.573,2.573,0,1,1-5.146,0v-4.729A2.567,2.567,0,0,1,412.773,309.7Z" transform="translate(-340.506 -255.853)" fill="#00c853"/>
      <path id="Path_34208" data-name="Path 34208" d="M349.873,372.6H354.6a2.573,2.573,0,1,1,0,5.146h-4.729a2.573,2.573,0,0,1,0-5.146Z" transform="translate(-288.542 -307.817)" fill="#00c853"/>
      <path id="Path_34209" data-name="Path 34209" d="M412.773,408.3a2.567,2.567,0,0,1,2.573,2.573V415.6a2.573,2.573,0,0,1-5.146,0v-4.729A2.567,2.567,0,0,1,412.773,408.3Z" transform="translate(-340.506 -337.31)" fill="#00c853"/>
      <path id="Path_34210" data-name="Path 34210" d="M448.473,372.6H453.2a2.573,2.573,0,1,1,0,5.146h-4.729a2.573,2.573,0,1,1,0-5.146Z" transform="translate(-369.999 -307.817)" fill="#00c853"/>
      <circle id="Ellipse_3093" data-name="Ellipse 3093" cx="2.573" cy="2.573" r="2.573" transform="translate(66.06 14.083)" fill="#07b7ee"/>
      <path id="Path_34211" data-name="Path 34211" d="M391.873,18.1a2.567,2.567,0,0,1,2.573,2.573V25.4a2.573,2.573,0,1,1-5.146,0V20.673A2.578,2.578,0,0,1,391.873,18.1Z" transform="translate(-323.24 -14.953)" fill="#07b7ee"/>
      <path id="Path_34212" data-name="Path 34212" d="M326.4,83.573A2.567,2.567,0,0,1,328.973,81H333.7a2.573,2.573,0,1,1,0,5.146h-4.729A2.578,2.578,0,0,1,326.4,83.573Z" transform="translate(-271.276 -66.917)" fill="#07b7ee"/>
      <path id="Path_34213" data-name="Path 34213" d="M391.873,126.576A2.567,2.567,0,0,1,389.3,124v-4.729a2.573,2.573,0,1,1,5.146,0V124A2.556,2.556,0,0,1,391.873,126.576Z" transform="translate(-323.24 -96.41)" fill="#07b7ee"/>
      <path id="Path_34214" data-name="Path 34214" d="M434.976,83.573a2.567,2.567,0,0,1-2.573,2.573h-4.729a2.573,2.573,0,0,1,0-5.146H432.4A2.579,2.579,0,0,1,434.976,83.573Z" transform="translate(-352.815 -66.917)" fill="#07b7ee"/>
      <path id="Path_34215" data-name="Path 34215" d="M159.8,104.614a2.579,2.579,0,0,1-1.5-3.321,2.53,2.53,0,0,1,1.3-1.408c2.243-1.061,4.99-2.8,5.338-5.077.33-2.1-1.46-4.329-2.225-5.042-.817-.678-5.372-4.8-4.312-9.389.713-3.06,3.6-5.233,8.589-6.433,3.3-.8,4.66-1.843,4.816-2.573.243-1.078-1.374-3.095-2.608-4.1a2.572,2.572,0,0,1,3.234-4c.556.452,5.425,4.555,4.381,9.215-.7,3.06-3.582,5.216-8.624,6.433-3.269.782-4.625,1.86-4.8,2.591-.261,1.13,1.408,3.286,2.66,4.347l.087.07c.191.174,4.66,4.329,3.86,9.615-.539,3.634-3.321,6.642-8.224,8.972a2.392,2.392,0,0,1-1.982.1Z" transform="translate(-132.271 -51.811)" fill="#00c853"/>
      <path id="Path_34216" data-name="Path 34216" d="M270.522,351.572a2.835,2.835,0,0,1-1.9.035,1.948,1.948,0,0,1-1.1-2.886c1.113-2,2.208-4.747,1.13-6.381-1.008-1.513-3.738-1.843-4.764-1.843-1.043.052-7.076.191-9.006-3.321-1.287-2.347-.33-5.442,2.834-9.18,2.086-2.469,2.521-3.947,2.225-4.486-.452-.817-2.938-1.13-4.486-1.026A2.128,2.128,0,0,1,253,320.45a2.713,2.713,0,0,1,2.591-2.4c.713-.052,6.955-.382,8.954,3.164,1.3,2.33.33,5.425-2.869,9.2-2.069,2.452-2.486,3.929-2.173,4.486.469.869,3.06,1.217,4.677,1.13h.122c.261,0,6.224-.07,8.78,3.721,1.756,2.608,1.408,6.155-1.026,10.554a2.944,2.944,0,0,1-1.53,1.269Z" transform="translate(-210.634 -262.726)" fill="#fcb424"/>
      <path id="Path_34217" data-name="Path 34217" d="M262.073,222.691a2.5,2.5,0,0,1-1.721-4.19,36.725,36.725,0,0,1,9.823-6.92,44.48,44.48,0,0,1,11.649-3.929,47.8,47.8,0,0,1,15.735-.261,2.486,2.486,0,1,1-.713,4.92,40.374,40.374,0,0,0-24.237,3.616A33.132,33.132,0,0,0,264,221.874,2.357,2.357,0,0,1,262.073,222.691Z" transform="translate(-216.164 -170.896)" fill="#9266cc"/>
      <path id="Path_34218" data-name="Path 34218" d="M19.966,187.684a2.439,2.439,0,0,1-.713-.1,2.477,2.477,0,0,1-1.669-3.095,72.607,72.607,0,0,0,2.017-9.458c.9-6.537.052-9.806-1.026-10.693-.869-.713-2.9-.3-5.546,1.13a2.489,2.489,0,1,1-2.365-4.381c4.712-2.556,8.433-2.764,11.058-.626,2.973,2.417,3.895,7.424,2.8,15.3a74.587,74.587,0,0,1-2.173,10.136A2.493,2.493,0,0,1,19.966,187.684Z" transform="translate(-9.351 -131.351)" fill="#9266cc"/>
      <circle id="Ellipse_3094" data-name="Ellipse 3094" cx="3.147" cy="3.147" r="3.147" transform="translate(48.83 28.775)" fill="#fcb424"/>
      <circle id="Ellipse_3095" data-name="Ellipse 3095" cx="3.147" cy="3.147" r="3.147" transform="translate(45.683)" fill="#ed3f03"/>
      <circle id="Ellipse_3096" data-name="Ellipse 3096" cx="3.547" cy="3.547" r="3.547" transform="translate(31.739 75.528)" fill="#9266cc"/>
      <circle id="Ellipse_3097" data-name="Ellipse 3097" cx="2.469" cy="2.469" r="2.469" transform="translate(62.548 48.039)" fill="#07b7ee"/>
      <circle id="Ellipse_3098" data-name="Ellipse 3098" cx="2.695" cy="2.695" r="2.695" transform="translate(78.144 3.599)" fill="#9266cc"/>
    </g>
  </g>
</svg>
