<svg xmlns="http://www.w3.org/2000/svg" width="70.11" height="59.473" viewBox="0 0 70.11 59.473">
  <g id="FreeUser" transform="translate(0 -38.84)">
    <g id="Group_15484" data-name="Group 15484" transform="translate(54.567 70.948)">
      <g id="Group_15483" data-name="Group 15483">
        <path id="Path_34837" data-name="Path 34837" d="M403.916,273.32h-5.422a14.1,14.1,0,0,1,.855,4.848V298.66a6.042,6.042,0,0,1-.348,2.024h8.964a6.079,6.079,0,0,0,6.072-6.072V283.441A10.132,10.132,0,0,0,403.916,273.32Z" transform="translate(-398.494 -273.32)" fill="#00443f"/>
      </g>
    </g>
    <g id="Group_15486" data-name="Group 15486" transform="translate(0 70.948)">
      <g id="Group_15485" data-name="Group 15485">
        <path id="Path_34838" data-name="Path 34838" d="M14.688,278.169a14.1,14.1,0,0,1,.855-4.848H10.121A10.132,10.132,0,0,0,0,283.442v11.171a6.079,6.079,0,0,0,6.072,6.072h8.964a6.045,6.045,0,0,1-.348-2.024Z" transform="translate(0 -273.321)" fill="#00443f"/>
      </g>
    </g>
    <g id="Group_15488" data-name="Group 15488" transform="translate(18.736 65.675)">
      <g id="Group_15487" data-name="Group 15487" transform="translate(0 0)">
        <path id="Path_34839" data-name="Path 34839" d="M159.345,234.815h-12.4a10.132,10.132,0,0,0-10.121,10.121v20.492a2.024,2.024,0,0,0,2.024,2.024h28.589a2.024,2.024,0,0,0,2.024-2.024V244.936A10.132,10.132,0,0,0,159.345,234.815Z" transform="translate(-136.829 -234.815)" fill="#00443f"/>
      </g>
    </g>
    <g id="Group_15490" data-name="Group 15490" transform="translate(22.883 38.84)">
      <g id="Group_15489" data-name="Group 15489" transform="translate(0 0)">
        <path id="Path_34840" data-name="Path 34840" d="M179.285,38.84a12.169,12.169,0,1,0,12.171,12.172A12.185,12.185,0,0,0,179.285,38.84Z" transform="translate(-167.114 -38.84)" fill="#00443f"/>
      </g>
    </g>
    <g id="Group_15492" data-name="Group 15492" transform="translate(4.579 50.185)">
      <g id="Group_15491" data-name="Group 15491">
        <path id="Path_34841" data-name="Path 34841" d="M42.546,121.689a9.1,9.1,0,1,0,9.1,9.1A9.113,9.113,0,0,0,42.546,121.689Z" transform="translate(-33.443 -121.689)" fill="#00443f"/>
      </g>
    </g>
    <g id="Group_15494" data-name="Group 15494" transform="translate(47.325 50.185)">
      <g id="Group_15493" data-name="Group 15493">
        <path id="Path_34842" data-name="Path 34842" d="M354.71,121.689a9.1,9.1,0,1,0,9.1,9.1A9.113,9.113,0,0,0,354.71,121.689Z" transform="translate(-345.607 -121.689)" fill="#00443f"/>
      </g>
    </g>
  </g>
</svg>
