<svg xmlns="http://www.w3.org/2000/svg" width="99.788" height="79.413" viewBox="0 0 99.788 79.413">
  <g id="greenHome" transform="translate(0.001 -46.994)">
    <g id="Group_15727" data-name="Group 15727" transform="translate(-0.001 46.994)">
      <path id="Path_34012" data-name="Path 34012" d="M101.349,120.939,65.76,150.278a.84.84,0,0,1-.031.185.846.846,0,0,0-.031.185v29.709a4.019,4.019,0,0,0,3.961,3.963H93.426V160.552h15.847v23.769h23.767A4.023,4.023,0,0,0,137,180.358V150.648a.871.871,0,0,0-.062-.37Z" transform="translate(-51.455 -104.908)" fill="#004540"/>
      <path id="Path_34013" data-name="Path 34013" d="M99.1,85.679,85.545,74.414V49.161a1.908,1.908,0,0,0-1.981-1.98H71.681a1.905,1.905,0,0,0-1.981,1.98V61.23L54.6,48.6a7.678,7.678,0,0,0-9.407,0L.687,85.679a1.8,1.8,0,0,0-.681,1.33,2,2,0,0,0,.433,1.455l3.837,4.58a2.111,2.111,0,0,0,1.3.681,2.3,2.3,0,0,0,1.486-.433L49.894,57.578,92.725,93.293a1.907,1.907,0,0,0,1.3.432h.186a2.114,2.114,0,0,0,1.3-.68l3.838-4.58a2,2,0,0,0,.432-1.456A1.8,1.8,0,0,0,99.1,85.679Z" transform="translate(0.001 -46.994)" fill="#004540"/>
    </g>
  </g>
</svg>
