<svg xmlns="http://www.w3.org/2000/svg" width="25.376" height="19.733" viewBox="0 0 25.376 19.733">
  <path id="homeicon" d="M12.35,7.373,4.229,14.062v7.22a.7.7,0,0,0,.7.7l4.936-.013a.7.7,0,0,0,.7-.7V17.053a.7.7,0,0,1,.7-.7H14.1a.7.7,0,0,1,.7.7v4.213a.7.7,0,0,0,.7.707l4.935.014a.7.7,0,0,0,.7-.7V14.057l-8.12-6.684A.537.537,0,0,0,12.35,7.373Zm12.829,4.547L21.5,8.884v-6.1a.529.529,0,0,0-.529-.529H18.5a.529.529,0,0,0-.529.529v3.2L14.029,2.736a2.114,2.114,0,0,0-2.687,0L.191,11.919a.529.529,0,0,0-.07.744l1.123,1.366a.529.529,0,0,0,.745.072L12.35,5.567a.537.537,0,0,1,.674,0L23.386,14.1a.529.529,0,0,0,.744-.07l1.123-1.366a.529.529,0,0,0-.075-.746Z" transform="translate(0.001 -2.254)" fill="#fffcf1"/>
</svg>
