<svg xmlns="http://www.w3.org/2000/svg" width="20.08" height="15.98" viewBox="0 0 20.08 15.98">
  <g id="home" transform="translate(0.001 -46.994)">
    <g id="Group_15727" data-name="Group 15727" transform="translate(-0.001 46.994)">
      <path id="Path_34012" data-name="Path 34012" d="M72.872,120.939l-7.162,5.9a.169.169,0,0,1-.006.037.17.17,0,0,0-.006.037V132.9a.809.809,0,0,0,.8.8h4.783V128.91h3.189v4.783h4.782a.81.81,0,0,0,.8-.8v-5.978a.175.175,0,0,0-.013-.074Z" transform="translate(-62.832 -117.713)" fill="#fffcf1"/>
      <path id="Path_34013" data-name="Path 34013" d="M19.941,54.778l-2.727-2.267V47.43a.384.384,0,0,0-.4-.4H14.424a.383.383,0,0,0-.4.4v2.429l-3.039-2.541a1.545,1.545,0,0,0-1.893,0L.138,54.778A.362.362,0,0,0,0,55.046a.4.4,0,0,0,.087.293l.772.922a.425.425,0,0,0,.262.137.463.463,0,0,0,.3-.087l8.619-7.187,8.619,7.187a.384.384,0,0,0,.262.087h.037a.425.425,0,0,0,.262-.137l.772-.922a.4.4,0,0,0,.087-.293A.363.363,0,0,0,19.941,54.778Z" transform="translate(0.001 -46.994)" fill="#fffcf1"/>
    </g>
  </g>
</svg>
