<svg xmlns="http://www.w3.org/2000/svg" width="17.25" height="17.25" viewBox="0 0 17.25 17.25">
  <g id="Instagram" transform="translate(0.75 0.75)">
    <path id="Path_24401" data-name="Path 24401" d="M6.938,3h7.875A3.938,3.938,0,0,1,18.75,6.938v7.875a3.937,3.937,0,0,1-3.937,3.937H6.938A3.937,3.937,0,0,1,3,14.813V6.938A3.938,3.938,0,0,1,6.938,3Z" transform="translate(-3 -3)" fill="none" stroke="#00443f" stroke-linecap="round" stroke-linejoin="round" stroke-width="1.5"/>
    <path id="Path_24402" data-name="Path 24402" d="M18.331,14.623a3.15,3.15,0,1,1-2.654-2.654,3.15,3.15,0,0,1,2.654,2.654Z" transform="translate(-7.306 -7.244)" fill="none" stroke="#00443f" stroke-linecap="round" stroke-linejoin="round" stroke-width="1.5"/>
    <path id="Path_24403" data-name="Path 24403" d="M26.25,9.75h0" transform="translate(-14.044 -6.206)" fill="none" stroke="#00443f" stroke-linecap="round" stroke-linejoin="round" stroke-width="1.5"/>
  </g>
</svg>
