<svg xmlns="http://www.w3.org/2000/svg" width="11.208" height="11.209" viewBox="0 0 11.208 11.209">
  <path id="invoice" d="M10.17,1H3.038a.509.509,0,0,0-.331.127,2.038,2.038,0,0,1,1.35,1.707.892.892,0,0,1,0,.2V11.7a.509.509,0,0,0,.841.387l1.452-1.243L7.8,12.086a.509.509,0,0,0,.662,0l1.452-1.243,1.452,1.243a.509.509,0,0,0,.331.122.54.54,0,0,0,.214-.046.509.509,0,0,0,.3-.464V3.038A2.038,2.038,0,0,0,10.17,1ZM9.661,8.132H6.6a.509.509,0,1,1,0-1.019H9.661a.509.509,0,1,1,0,1.019Zm0-2.038H6.6a.509.509,0,1,1,0-1.019H9.661a.509.509,0,1,1,0,1.019Zm0-2.038H6.6a.509.509,0,1,1,0-1.019H9.661a.509.509,0,1,1,0,1.019ZM3.038,3.038V7.113H1.509A.509.509,0,0,1,1,6.6V2.834a1.024,1.024,0,1,1,2.038.2Z" transform="translate(-1 -1)" fill="#2f2f31"/>
</svg>
