<svg xmlns="http://www.w3.org/2000/svg" width="28" height="27" viewBox="0 0 28 27">
  <g id="premiummember" transform="translate(-1373 -811.962)">
    <g id="Group_14092" data-name="Group 14092" transform="translate(1373 812)">
      <rect id="Rectangle_7561" data-name="Rectangle 7561" width="28" height="27" rx="13.5" transform="translate(0 -0.038)" fill="#b2d8d5"/>
    </g>
    <g id="Layer_1" transform="translate(1378.719 819.081)">
      <g id="Group_14090" data-name="Group 14090" transform="translate(0 0)">
        <g id="Group_14089" data-name="Group 14089">
          <path id="Path_34003" data-name="Path 34003" d="M2.014,13.57,1.007,7.022a.546.546,0,0,1,.868-.52L5.013,8.855a.75.75,0,0,0,1.074-.184L8.7,4.752a.7.7,0,0,1,1.161,0l2.613,3.92a.75.75,0,0,0,1.074.184L16.687,6.5a.546.546,0,0,1,.868.52L16.547,13.57Z" transform="translate(-1 -4.441)" fill="#007e76"/>
          <path id="Path_34004" data-name="Path 34004" d="M16.612,25.593H3.595a.758.758,0,0,1-.758-.758V23.171H17.37v1.664A.758.758,0,0,1,16.612,25.593Z" transform="translate(-1.823 -12.831)" fill="#007e76"/>
        </g>
      </g>
    </g>
  </g>
</svg>
