<svg id="jobicon" xmlns="http://www.w3.org/2000/svg" width="91.393" height="76.16" viewBox="0 0 91.393 76.16">
  <path id="Path_23703" data-name="Path 23703" d="M197.323,59.8a3.81,3.81,0,0,1-3.808-3.808V50.283H178.283v5.712a3.808,3.808,0,1,1-7.616,0V50.283a7.624,7.624,0,0,1,7.616-7.616h15.232a7.624,7.624,0,0,1,7.616,7.616v5.712A3.809,3.809,0,0,1,197.323,59.8Z" transform="translate(-140.203 -42.667)" fill="#00443f"/>
  <path id="Path_23704" data-name="Path 23704" d="M48.4,262.211a7.844,7.844,0,0,1-2.7.457,8.347,8.347,0,0,1-2.932-.533L0,247.893v29.055A10.466,10.466,0,0,0,10.472,287.42H80.921a10.466,10.466,0,0,0,10.472-10.472V247.893Z" transform="translate(0 -211.26)" fill="#00443f"/>
  <path id="Path_23705" data-name="Path 23705" d="M91.393,117.139v8.721L46.61,140.787a2.816,2.816,0,0,1-1.828,0L0,125.859v-8.721a10.466,10.466,0,0,1,10.472-10.472H80.921A10.466,10.466,0,0,1,91.393,117.139Z" transform="translate(0 -95.243)" fill="#00443f"/>
</svg>
