<svg id="like" xmlns="http://www.w3.org/2000/svg" width="20.753" height="21.349" viewBox="0 0 20.753 21.349">
  <path id="Path_24452" data-name="Path 24452" d="M7.3,14.514a2.652,2.652,0,0,1-.621-1.772,2.723,2.723,0,0,1,.58-1.536A2.386,2.386,0,0,1,7.825,8.46,4.93,4.93,0,0,1,11.41,7.6a14.011,14.011,0,0,1,2.2.281h0c.223.04.46.089.7.143a7.789,7.789,0,0,0-.558-2.594c-.625-1.9-.589-3.357.116-4.331A2.838,2.838,0,0,1,16.142,0,1.121,1.121,0,0,1,17,.393a3,3,0,0,1,.375,2.13c.589,1.58,2.241,5.456,3.639,6.532a.478.478,0,0,1,.071.063,4.8,4.8,0,0,1,.875,1.313,1.842,1.842,0,0,1,.884-.223h2.723a1.859,1.859,0,0,1,1.857,1.857v7.255a1.859,1.859,0,0,1-1.857,1.857H22.848a1.853,1.853,0,0,1-1.071-.339l-1.049.125a44.95,44.95,0,0,1-5.951.326c-.531.04-1.031.063-1.5.063a10.017,10.017,0,0,1-2.076-.188,3.882,3.882,0,0,1-2.772-1.723,2.733,2.733,0,0,1-.3-1.71,2.848,2.848,0,0,1-1.013-2.317A3.016,3.016,0,0,1,7.3,14.514ZM25.571,19.97a.653.653,0,0,0,.652-.652V12.059a.653.653,0,0,0-.652-.652H22.848a.653.653,0,0,0-.652.652v7.255a.653.653,0,0,0,.652.652h2.723ZM8.441,13.992a.6.6,0,0,1,.08.728,1.857,1.857,0,0,0-.205.746,1.787,1.787,0,0,0,.839,1.545.608.608,0,0,1,.205.688,1.577,1.577,0,0,0,.121,1.152,2.793,2.793,0,0,0,1.973,1.134,11.761,11.761,0,0,0,3.255.1h.063a44.067,44.067,0,0,0,5.8-.317h0l.451-.054a1.891,1.891,0,0,1-.04-.393V12.059a1.889,1.889,0,0,1,.085-.554,3.731,3.731,0,0,0-.83-1.531c-2-1.589-3.964-6.951-4.049-7.183a.565.565,0,0,1-.027-.3A2.79,2.79,0,0,0,16.111,1.2a1.6,1.6,0,0,0-1.259.6c-.455.629-.438,1.755.054,3.246.75,2.272.813,3.469.219,4a.973.973,0,0,1-.973.174c-.272-.063-.531-.116-.777-.156l-.058-.013c-1.371-.3-3.826-.482-4.679.295a1.284,1.284,0,0,0-.152,1.63.6.6,0,0,1-.107.777,1.691,1.691,0,0,0-.5,1.04A1.658,1.658,0,0,0,8.441,13.992Z" transform="translate(-6.675 0)" fill="#707070"/>
</svg>
