<svg xmlns="http://www.w3.org/2000/svg" width="22.311" height="20.297" viewBox="0 0 22.311 20.297">
  <path id="like2" d="M130,110.044h-4.3v11.78a1.334,1.334,0,0,0,1.315,1.009H130a1.286,1.286,0,0,0,1.314-1.252V111.3A1.285,1.285,0,0,0,130,110.044Zm-20.462,1.371a4.068,4.068,0,0,1,3.006-1.371h6.339a.328.328,0,0,0,.257-.122.3.3,0,0,0,.054-.269l-.8-2.736c-.771-2.632.247-3.367,2.587-4.315a.846.846,0,0,1,.652,0,.789.789,0,0,1,.462.437l2.958,6.762V121.65l-2.981,1.183h-7.895c-2.335,0-3.209-2.361-3.476-3.375l-1.632-6.188A2.057,2.057,0,0,1,109.534,111.415Z" transform="translate(-109 -102.536)" fill="#0073b1"/>
</svg>
