<svg xmlns="http://www.w3.org/2000/svg" width="15.75" height="15.75" viewBox="0 0 15.75 15.75">
  <path id="LinkedIn" d="M13.418,13.422H11.086V9.767c0-.872-.018-1.993-1.215-1.993-1.216,0-1.4.948-1.4,1.929v3.719H6.137V5.906h2.24V6.931h.03a2.458,2.458,0,0,1,2.212-1.214c2.363,0,2.8,1.555,2.8,3.58v4.125ZM3.5,4.878A1.354,1.354,0,1,1,4.857,3.523,1.353,1.353,0,0,1,3.5,4.878Zm1.169,8.544H2.333V5.906H4.672ZM14.585,0H1.162A1.148,1.148,0,0,0,0,1.135V14.615A1.148,1.148,0,0,0,1.162,15.75H14.583a1.152,1.152,0,0,0,1.167-1.135V1.135A1.153,1.153,0,0,0,14.583,0Z" fill="#00443f"/>
</svg>
