<svg xmlns="http://www.w3.org/2000/svg" width="22.179" height="18.483" viewBox="0 0 22.179 18.483">
  <path id="mediaicon" d="M1.848,6.7H0v4.621H.009L0,19.634a1.854,1.854,0,0,0,1.848,1.848H18.483V19.634H1.848ZM20.331,4.848H12.938L11.09,3H5.545A1.846,1.846,0,0,0,3.706,4.848L3.7,15.938a1.854,1.854,0,0,0,1.848,1.848H20.331a1.854,1.854,0,0,0,1.848-1.848V6.7A1.854,1.854,0,0,0,20.331,4.848ZM6.469,15.014l4.159-5.545,3.234,4.168,2.31-2.782,3.234,4.159Z" transform="translate(0 -3)" fill="#00867d"/>
</svg>
