<svg id="menus-4" xmlns="http://www.w3.org/2000/svg" width="40" height="30" viewBox="0 0 40 30">
  <rect id="Rectangle_7561" data-name="Rectangle 7561" width="40" height="30" rx="5" fill="#ffe175"/>
  <g id="check-list" transform="translate(-8.973 4.768)">
    <g id="Group_14042" data-name="Group 14042" transform="translate(21.333)">
      <g id="Group_14041" data-name="Group 14041">
        <path id="Path_34000" data-name="Path 34000" d="M281.6,277.333a4.264,4.264,0,1,0,4.264,4.264A4.264,4.264,0,0,0,281.6,277.333Zm-.256,6.566a.853.853,0,0,1-1.194,0l-1.705-1.705L279.635,281l1.109,1.108,2.814-2.814,1.194,1.194Z" transform="translate(-267.1 -266.248)" fill="#004540"/>
        <path id="Path_34001" data-name="Path 34001" d="M30.713,15.349a5.116,5.116,0,0,1,5.116-5.116h.853V.853A.853.853,0,0,0,35.829,0H22.186a.853.853,0,0,0-.853.853v18.76a.853.853,0,0,0,.853.853H35.829A5.116,5.116,0,0,1,30.713,15.349ZM27.3,3.411h5.969V5.116H27.3Zm0,4.264h4.264V9.38H27.3Zm-2.558,5.969a.853.853,0,1,1,.853-.853A.853.853,0,0,1,24.744,13.643Zm0-4.264a.853.853,0,1,1,.853-.853A.853.853,0,0,1,24.744,9.38Zm0-4.264a.853.853,0,1,1,.853-.853A.853.853,0,0,1,24.744,5.116Zm5.116,8.527H27.3V11.938H29.86Z" transform="translate(-21.333 0)" fill="#004540"/>
      </g>
    </g>
  </g>
</svg>
