<svg id="menus-7" xmlns="http://www.w3.org/2000/svg" width="40" height="30" viewBox="0 0 40 30">
  <rect id="Rectangle_7561" data-name="Rectangle 7561" width="40" height="30" rx="5" fill="#ffe175"/>
  <g id="Group_14038" data-name="Group 14038" transform="translate(12.298 7.297)">
    <path id="Path_20740" data-name="Path 20740" d="M-735.86-127.683a6.94,6.94,0,0,1,5.507-6.775,6.9,6.9,0,0,1,8.1,5.058,6.709,6.709,0,0,1-1.174,5.861c-.1.141-.087.2.028.318.9.886,1.785,1.781,2.677,2.671a.777.777,0,0,1,.248.75.767.767,0,0,1-1.259.416c-.05-.043-.1-.091-.142-.138q-1.312-1.311-2.622-2.625c-.1-.1-.16-.127-.29-.028a6.909,6.909,0,0,1-10.906-4.009A7.176,7.176,0,0,1-735.86-127.683Zm12.293.01a5.366,5.366,0,0,0-5.351-5.388,5.365,5.365,0,0,0-5.407,5.348,5.378,5.378,0,0,0,5.367,5.412A5.381,5.381,0,0,0-723.567-127.674Z" transform="translate(735.86 134.598)" fill="#004540" stroke="#004540" stroke-width="0.8"/>
  </g>
</svg>
