<svg id="menus-2" xmlns="http://www.w3.org/2000/svg" width="40" height="30" viewBox="0 0 40 30">
  <rect id="Rectangle_7561" data-name="Rectangle 7561" width="40" height="30" rx="5" fill="#ffe175"/>
  <g id="booking" transform="translate(12 7)">
    <path id="Path_33993" data-name="Path 33993" d="M238.865,367.4h1.13v1.13h-1.13Z" transform="translate(-230.99 -355.287)" fill="#004540"/>
    <path id="Path_33994" data-name="Path 33994" d="M375.434,367.4h1.13v1.13h-1.13Z" transform="translate(-363.057 -355.287)" fill="#004540"/>
    <path id="Path_33995" data-name="Path 33995" d="M102.3,238.867h1.13V240H102.3Z" transform="translate(-98.926 -230.992)" fill="#004540"/>
    <path id="Path_33996" data-name="Path 33996" d="M102.3,367.4h1.13v1.13H102.3Z" transform="translate(-98.926 -355.287)" fill="#004540"/>
    <path id="Path_33997" data-name="Path 33997" d="M15.061,1.059h-.37V2.613a.495.495,0,1,1-.989,0V.495a.495.495,0,0,0-.989,0v.565h-1.2V2.613a.495.495,0,0,1-.989,0V.495a.495.495,0,0,0-.989,0v.565h-1.2V2.613a.495.495,0,0,1-.989,0V.495a.495.495,0,1,0-.989,0v.565h-1.2V2.613a.495.495,0,1,1-.989,0V.495a.495.495,0,1,0-.989,0v.565H1.819A1.821,1.821,0,0,0,0,2.878V4.238H16.88V2.878a1.821,1.821,0,0,0-1.819-1.819Z" transform="translate(0)" fill="#004540"/>
    <path id="Path_33998" data-name="Path 33998" d="M0,168.368a1.821,1.821,0,0,0,1.819,1.819H15.061a1.821,1.821,0,0,0,1.819-1.819v-9.835H0Zm9.994-1.324a.5.5,0,0,1-.495.495H7.38a.5.5,0,0,1-.495-.495v-2.119a.5.5,0,0,1,.495-.495H9.5a.5.5,0,0,1,.495.495Zm1.395-6.356a.5.5,0,0,1,.495-.495H14a.5.5,0,0,1,.495.495v2.119A.5.5,0,0,1,14,163.3H11.883a.5.5,0,0,1-.495-.495Zm0,4.238a.5.5,0,0,1,.495-.495H14a.5.5,0,0,1,.495.495v2.119a.5.5,0,0,1-.495.495H11.883a.5.5,0,0,1-.495-.495ZM6.967,161.4a.5.5,0,0,1,.7,0l.4.4,1.148-1.148a.495.495,0,0,1,.7.7l-1.5,1.5a.494.494,0,0,1-.7,0l-.749-.749a.494.494,0,0,1,0-.7Zm-4.583-.71a.5.5,0,0,1,.495-.495H5a.5.5,0,0,1,.495.495v2.119A.5.5,0,0,1,5,163.3H2.878a.5.5,0,0,1-.495-.495Zm0,4.238a.5.5,0,0,1,.495-.495H5a.5.5,0,0,1,.495.495v2.119a.5.5,0,0,1-.495.495H2.878a.5.5,0,0,1-.495-.495Z" transform="translate(0 -153.306)" fill="#004540"/>
    <path id="Path_33999" data-name="Path 33999" d="M375.434,238.867h1.13V240h-1.13Z" transform="translate(-363.057 -230.992)" fill="#004540"/>
  </g>
</svg>
