<svg id="menus-1" xmlns="http://www.w3.org/2000/svg" width="40" height="30" viewBox="0 0 40 30">
  <rect id="Rectangle_7561" data-name="Rectangle 7561" width="40" height="30" rx="5" fill="#ffe175"/>
  <g id="Group_14029" data-name="Group 14029" transform="translate(11.212 6.21)">
    <path id="Path_20753" data-name="Path 20753" d="M2837.97,411.4a.532.532,0,0,1-.557.308c-1.4-.008-2.8,0-4.2,0-.341,0-.5-.156-.5-.5a3.611,3.611,0,0,1,.081-1.043,2.123,2.123,0,0,1,.737-1.077c.064-.051.1-.054.169.008a2.33,2.33,0,0,0,3.287,0c.061-.057.1-.058.158-.009a2.1,2.1,0,0,1,.794,1.3c.008.044.02.088.03.132Z" transform="translate(-2820.394 -394.13)" fill="#004540"/>
    <path id="Path_20754" data-name="Path 20754" d="M2743.963,97.749c.083.022.168.041.25.066a1.521,1.521,0,1,1-.714-.041.54.54,0,0,0,.076-.026Z" transform="translate(-2734.979 -97.749)" fill="#004540"/>
    <path id="Path_20755" data-name="Path 20755" d="M2627.566,186.728c-.35,0-.7,0-1.049,0a.564.564,0,0,1-.574-.637,5.8,5.8,0,0,1,.105-1.552,3.017,3.017,0,0,1,.953-1.518c.078-.068.124-.07.2.012a2.8,2.8,0,0,0,4.238-.008c.088-.09.135-.056.2,0a3.007,3.007,0,0,1,1.048,2.234c.012.28.005.56,0,.84a.563.563,0,0,1-.567.626c-.7,0-1.41.005-2.115,0-.136,0-.166.042-.165.185.007.73,0,1.46,0,2.189,0,.085,0,.154.093.2a1.7,1.7,0,0,1,.959,1.4.2.2,0,0,0,.152.2c.68.225,1.358.454,2.034.694.125.044.169.011.227-.11a1.885,1.885,0,0,1,2.278-1.065,2.166,2.166,0,0,1,1.4,2.231,2.077,2.077,0,0,1-1.784,1.977,1.973,1.973,0,0,1-2.047-1.583.341.341,0,0,0-.255-.291c-.725-.238-1.448-.488-2.169-.74a.172.172,0,0,0-.226.066,1.489,1.489,0,0,1-2.384.007.174.174,0,0,0-.224-.075c-.755.265-1.511.526-2.27.776-.125.041-.127.135-.15.231a2.015,2.015,0,0,1-1.783,1.611,1.972,1.972,0,0,1-1.948-1.421,2.231,2.231,0,0,1,1.034-2.683,1.853,1.853,0,0,1,2.509.919c.086.175.16.187.313.133.647-.231,1.3-.45,1.948-.668a.224.224,0,0,0,.177-.218,1.7,1.7,0,0,1,.95-1.384.163.163,0,0,0,.1-.175c0-.749,0-1.5,0-2.248,0-.121-.029-.155-.139-.153C2628.289,186.733,2627.927,186.728,2627.566,186.728Z" transform="translate(-2620.532 -179.819)" fill="#004540"/>
    <path id="Path_20756" data-name="Path 20756" d="M2594.306,411.705h-2.144a.426.426,0,0,1-.48-.487,3.654,3.654,0,0,1,.081-1.057,2.124,2.124,0,0,1,.737-1.077c.065-.051.1-.052.169.009a2.33,2.33,0,0,0,3.287-.005c.062-.058.1-.057.159-.008a2.064,2.064,0,0,1,.82,1.578c.01.193,0,.387,0,.581a.421.421,0,0,1-.461.465Z" transform="translate(-2591.681 -394.129)" fill="#004540"/>
  </g>
</svg>
