<svg xmlns="http://www.w3.org/2000/svg" width="582.909" height="361.585" viewBox="0 0 582.909 361.585">
  <path id="modal-map" d="M-384.391,439.44a6.393,6.393,0,0,0-5.9-.517,38.945,38.945,0,0,0-4.712,1.822c-3.965,1.932-7.44,1.72-11.3-.427a95.28,95.28,0,0,0-12.152-5.4c-3.575-1.371-3.7-1.2-7.1.425-1.1-3-4.5-4.052-8.1-5.131a9.3,9.3,0,0,1-4.257-2.762,83.535,83.535,0,0,1-5.793-8.305,1.623,1.623,0,0,1,.258-1.957c3.074-1.9,2.106-4.328.86-6.134-2.167-3.151-5.225-6.017-8.116-8.895-1.248-1.245-3.134-1.518-5.419-1.094a33.864,33.864,0,0,1-5.75.065c7.089-5.52,7.274-11.362.277-16.279-1.047,1.874-2.328,3.532-2.895,5.305-1.169,3.666-4.075,5.535-9.467,5.406a29.771,29.771,0,0,0-3.134.266c.426-2.017,1.743-3.183,4.668-2.75,2.229.332,2.752-.493,3.028-1.721.534-2.356.927-4.734,1.694-7.053a7.409,7.409,0,0,1,2.235-3.071c1.81-1.558,3.672-3.012,3.277-5.244-.059-.352.111-.946.448-1.076,4.463-1.743.437-3.9,1.121-5.8q-.615-.2-1.23-.4c-3.069,2.9-6.112,5.8-9.227,8.672a8.8,8.8,0,0,1-2.253,1.391c-1.222.558-2.531,1.015-3.821,1.5-8.886,3.329-10.243,4.6-12.065,11.167l-4.951.192c-1.107-1.305-2.511-2.961-3.772-4.448.549-.472,1.695-1.014,1.636-1.481a10.5,10.5,0,0,0-4.19-7.335,5.821,5.821,0,0,1-2.084-3.231c-.441-2.14-1.232-3.626-4.938-3.415-.969.052-2.623-.545-2.922-1.117-.558-1.065-1-2.574-.332-3.461,1.395-1.84,1.324-2.5-1.6-3.016-.422-.075-.863-.108-1.25-.155-1.184-3.048-3.436-3.074-7.16-4.064-6.1-1.615-12.921-1.323-18.542-3.839-1.419-.635-2.7-1.425-4.108-2.071a17.928,17.928,0,0,0-10.2-1.48,78.885,78.885,0,0,1-11.079.183,63.015,63.015,0,0,0-20.781,3.156,91.99,91.99,0,0,1-24.073,4.924,5.932,5.932,0,0,1-1.342.024c-5.993-1.164-10.432,1.144-15.178,3.136-4.292,1.8-9.056,3.033-13.393,4.784a14.337,14.337,0,0,0-4.844,3.4c-1.159,1.217-1.516,2.8-2.4,4.163-1.794,2.778-7.01,4.448-11.206,3.667-2.055-.382-9.031.507-10.236,1.1a38.941,38.941,0,0,0-4.232-.735,36.642,36.642,0,0,0-5.378.03c-3.837.347-7.656.82-11.475,1.264-1.431.166-2.837.516-4.271.577-5.774.255-7.829,1.468-9.8,5.383-.327.645-2.3,1.288-3.448,1.229-2.668-.13-4.715.009-5.769,2.077-.3.583-1.567.881-2.185,1.426a28.977,28.977,0,0,0-1.971,2.21,3.661,3.661,0,0,1-1.3,1.119c-3.309,1.188-6.625,2.214-10.577,1.5-1.406-.254-3.063.218-4.611.315a32.808,32.808,0,0,1-18.462-3.928,15.171,15.171,0,0,0-6.675-1.624c-2.04-.024-3.1-.5-3.447-1.607a63.526,63.526,0,0,1-1.339-6.236c5.806-.391,8.61-3.26,7.659-6.878-.538-2.04-.074-4.23-.752-6.233-1.243-3.666-.12-7.61-3.585-11.057-4.251-4.227-9.052-8.332-10.72-13.6-.851-2.69-1.538-5.408-2.322-8.109a5.28,5.28,0,0,0-.833-2.275,137.145,137.145,0,0,0-9.863-10.309c-2.139-1.912-3.927-3.592-4.319-6.18-.706-4.7-5.783-7.7-9.782-11.088-3.424-2.906-6.7-5.9-9.947-8.908a2.217,2.217,0,0,1-.535-2.381c.6.826,1.153,1.668,1.811,2.47.9,1.092,1.17,2.664,3.95,2.336.467-.056,1.313.937,1.785,1.527,1.192,1.492,2.268,3.028,3.4,4.558,3.786-1.731,3.869-2.913.7-4.881-4.531-2.82-5.2-3.767-3.74-6.809,1.336,2.035,2.666,4.071,4.108,6.271.48-.185,1.18-.45,1.841-.7,1.1,1.093,2.216,2.189,3.848,3.8,1.524-3.5,1.41-6.071-1.137-8.639-4.226-4.257-8.63-8.476-12.131-13.027-2.254-2.93-1.172-6.343.826-9.4,2.34-3.576,2.579-7.134.107-10.721-.146-.21-.352-.441-.342-.657.181-3.487,1.645-6.694,4.118-10.174.81,2.742,1.467,4.974,2.127,7.207.341.05.685.1,1.028.15a14.416,14.416,0,0,0,2.317-2.6c2.369-4.653,7.4-7.362,13.3-9.548a27.768,27.768,0,0,0,4.56-2.373c4.186-2.493,7.947-5.483,12.6-7.383,2.856-1.166,7.077-.995,10.635-.839,2.347.1,6.994-.44,8.567-1.632a12.748,12.748,0,0,1,4.578-2.294c4.2-1,8.681-1.385,11.764-4.141.839-.751,2.982-.935,4.577-1.068,2.388-.2,5.06.319,7.2-.248a181.726,181.726,0,0,0,18.064-5.609c4-1.527,6.132-4.4,7.86-7.461,1.152-2.034,3.432-3.811,5.541-5.491,1.305-1.037,3.322-1.611,4.875-2.515,1.843-1.074,1.438-2.177-.329-3.118-.413-.218-1.149-.254-1.362-.523-2.348-2.952-.353-8.168,3.448-10.2a15.476,15.476,0,0,0,4.431-3.725c1.893-2.248,3.016-3,5.778-2.9-1,.817-1.923,1.568-2.494,2.035,2.024,2.455,3.77,4.756,5.792,6.926.693.744,2.081,1.164,3.152,1.733A16.193,16.193,0,0,1-659.644,195a27.538,27.538,0,0,1,2.46-2.432c-1.632-1.235-3.633-2.75-5.838-4.419.657-.752,1.332-1.524,2.142-2.446-1.053-.572-2.061-1.119-3.071-1.664.092-.233.184-.464.275-.7l14.431,2.32c1.2-.987,2.833-2.335,4.935-4.067l-3.689-.442v-7.429c4.743,1.607,6.69.672,6.595-3.225,1.321.295,2.614.585,4.645,1.037-.429-2.046-.76-3.622-1.108-5.279,4.207.374,6.549-1.245,7.952-4.173,1.4,1.437,2.406,2.468,3.565,3.656,1.82-1.4-.35-4.047,3.709-3.691-.736-1.147-1.271-1.98-1.806-2.813l1.157-.327c.478.731.954,1.462,1.588,2.429l3.668-.993,2.968,1.611c.472-1.105.863-1.957,1.2-2.82.718-1.826,2.113-2.218,4.412-1.384,1.743.631,3.837.872,5.39,1.665a48.438,48.438,0,0,1,6.351,4.075c1.827,1.322,3.441,2.791,5.148,4.2l.745-.366-1.147,3.314c.657.06.979.153,1.071.087,4.237-3.01,8.9-2.522,13.937-1.124,1.322.366,3.207-.267,4.829-.46,1.333-.161,2.656-.352,4.377-.583.618-2.164-1.488-3.4-4.377-4.41.48-1.872.676-3.687,4-4.361a3.209,3.209,0,0,0,2.043-1.922c.659-2.167,1.441-4.09,5.008-4.736.84-.15,1.475-.872,2.551-1.55l-3.625-1.549c.065-.221.029-.5.21-.647,2.566-2.117,5.139-4.233,7.776-6.3a2.655,2.655,0,0,1,1.682-.49c3.94.722,5.191-.955,5.9-3.174,6.916.718,13.783,2.238,20.816.364,3.278-.875,4.008-3.41,2.5-5.658-1.674-2.509-3.486-3.172-7.166-2.214-.912.237-2.6-1.039-4.105-1.692,2.994-3.282,8.655.454,11.615-3.073.224,1.263.453,2.136.525,3.014.2,2.386.459,2.491,3.5,1.288.382-.152.793-.268,1.135-.381,2.513.749,2.989,4.126,7.157,2.708.294.452.785,1.551,1.026,1.524,5.2-.583,8.557,2.676,13.21,3.1,4.241.385,8.568-.339,12.647,1.768,1.382.712,5.125-.757,7.711-1.386a10.261,10.261,0,0,0,2.524-1.385c.224.132.445.265.672.4q-1.562,1.412-3.117,2.826c.082.2.163.4.249.6,1.545-.18,3.091-.357,5.031-.581.065,1,.128,1.971.19,2.929,4.176.087,5.163-1,4.2-3.461-.328-.827,1.522-2.078,2.378-3.136l1.08.323a7.933,7.933,0,0,0,1.087,2.381,5.566,5.566,0,0,0,2.29,1.075,18.921,18.921,0,0,1,3.7,1.286c-4.224,1.971-5.839,4.421-5.6,7.657.04.565-1.464,1.4-2.5,1.743-2.348.765-4.871,1.256-7.277,1.938-2.5.708-3.186,2.254-1.793,3.766,1.859,2.022,1.15,4.478-1.395,6.119a22.8,22.8,0,0,0-5.016,4.064c-1.529,1.8-.646,3.485,1.773,4.761,3,1.585,5.931,3.238,8.924,4.835a14.607,14.607,0,0,0,4.094,1.936c2.6.465,5.366.48,8.433.712-.252-.267-.12-.189-.14-.138-1.171,3.371,2.636,3.927,5.567,5.164a35.46,35.46,0,0,1,8.185,4.352c3.4,2.723,8.02,3.353,12.383,4.436,2.741.68,4.7,1.547,5.47,3.661a4.6,4.6,0,0,0,2.338,2.214c3.579,1.623,7.212,3.229,11.033,4.537,3.362,1.152,10.119-1.1,12.684-4.031a84.7,84.7,0,0,0,6.342-7.78,36.474,36.474,0,0,0,3.1-6.477c.9-2.115,1.52-4.292,2.5-6.387,1.151-2.479,2.285-4.826,1.676-7.6-.743-3.377-.6-6.852-.829-10.286-.024-.317-.154-.7.043-.943,3.046-3.689,1.425-8.454,5.511-11.9a4.2,4.2,0,0,0,.7-1.172c-1-.341-1.843-.635-2.708-.932,0-.25-.116-.524.018-.706a88.658,88.658,0,0,0,5.314-7.115,60.244,60.244,0,0,0,3.27-7.361c.222-.509.158-1.262.631-1.5,1.91-.951,3.978-1.743,5.742-2.493a18.708,18.708,0,0,1,1.87,2.524c.779,1.528,1.835,3.1,1.916,4.67.15,3.112.444,5.961,5.671,6.862-2.591,3.4-2.629,3.425,1.282,5.944,1.187.767,1.928,1.368,1.066,2.605-.321.459.422,1.32.786,1.967.168.3.844.533.856.805.118,2.667-.278,5.382.308,7.988a27.742,27.742,0,0,0,3.466,8.542c1.145,1.841,2.722,1.493,5.871-.754l5.335-.4c-.338,3.934,4.585,4.959,8.135,6.617,2.733,1.277,4.118,2.748,2.925,4.781-1.507,2.582-.209,4.959.173,7.425.306,1.991,1.583,3.787.148,6.063-.63,1,2.183,3.188,3.691,4.71a11.8,11.8,0,0,0,2.8,1.6c.053,5.364,5.314,10.653-.661,16.057h4.833a21.277,21.277,0,0,0-.429,4.486c.169,1.5.218,3.725,1.5,4.291,3.033,1.339,5.008,3.535,9.145,4.215,3.752.617,9.1,1.894,7.656,6.662l3.372-.981c.263,1.445.52,2.518,3.361,2.4,1.188-.048,2.53,1.837,4,3l2.1-.921c2.135,1.125,4.241,2.256,6.406,3.331.131.065.7-.308,1.032-.461.252.862.524,1.79.794,2.7a8.629,8.629,0,0,0-2.621-.917c-3.542-.02-4.321,1.007-2.531,3.266a7.668,7.668,0,0,0,2.659,2.4,5.446,5.446,0,0,1,3.529,4.325c.57,3.438,2.657,6.7,2.018,10.31-.186,1.026.9,2.307,1.853,3.236a6.041,6.041,0,0,0,3.136,1.01c.295.031.88-1.06,1.255-1.657a11.994,11.994,0,0,0,.692-1.457c2.556,1.932,4.973,3.763,7.39,5.593l1.025-.25v-2.964c2.942,2.043,2.8,4.51,2.413,7.09a42.46,42.46,0,0,0-.454,7.006c.006.434,1.534,1.32,1.924,1.212,2.781-.772,3.421.338,3.71,1.872a8.376,8.376,0,0,0,.371,2.345c.412.815,1.013,1.966,1.928,2.2,2.745.7,3.847,2.2,5.128,3.824,1.511,1.913,3.554,3.611,5.19,5.476a9.457,9.457,0,0,1,2.331,3.586c.7,3.022,3.786,4.466,6.839,6.126,1.734-2.253,3.314-4.306,4.892-6.358l.857.079c-.553,1.532-.657,3.248-1.748,4.555-2.258,2.7-5.2,4.987-4.2,8.641.394,1.454-1.8,3.181-2.309,4.86-.561,1.84-.405,3.783-.844,5.651a7.085,7.085,0,0,1-1.638,2.5c-1.6,1.935.02,3.431,1.379,4.9a8.647,8.647,0,0,0,2.386,1.176l.848-.527a21.928,21.928,0,0,1-1.078,2.362,7.732,7.732,0,0,0-.783,5.693,9.151,9.151,0,0,1-2.737,8.774c-2.29,2.181-3.8,4.769-5.643,7.185a10.17,10.17,0,0,0-.576,1.113c-2.96,5.093-7.029,9.82-9.04,15.252-.915,2.472-3.9,4.55-5.894,6.834-1.742,2-3.135,4.188-5.181,6.013a14.787,14.787,0,0,1-5.985,3.439c-7.673,1.881-11.718,6.355-16.313,10.505-1.491,1.351-3.463,2.468-4.693,3.914-2.263,2.665-4.125,5.5-6.2,8.251a4.825,4.825,0,0,1-1.737,1.8c-6.041,2.6-10.2,6.083-11.18,11.183-.029.155,0,.37-.13.456-4.984,3.3-5.23,8.013-7.409,12.158-1.089,2.071-7.1,3.328-11.377,2.707a112.334,112.334,0,0,0-11.539-1.441c-5-.2-9.185,1.618-13.344,3.428-3.4,1.482-7.219,2.48-10.616,3.966-1.323.579-1.991,1.907-3.269,3.208-.021-2.8-3.974-3.033-6.058-4.66-2.138-1.671-4.727-3.055-7.245-4.647-1.108-.118-2.629-.277-4.148-.435,1.272-.455,3.193-.7,3.67-1.413.71-1.075.485-2.488.456-3.755,0-.263-1.053-.809-1.325-.727-2.23.661-4.387,1.446-5.723,1.9C-385.574,437.554-384.983,438.5-384.391,439.44Zm14.208,47.956c.757-.826,2.152-1.663,2.138-2.484-.028-1.829,1.779-1.608,3.161-1.676.289-.014.625,1.274,1.083,1.913a11.159,11.159,0,0,0,1.4,1.376c.451-.275,1.221-.513,1.3-.836.477-1.857.188-3.609,1.773-5.551,1.6-1.957,1.788-4.445,5.284-5.539a1.613,1.613,0,0,0,1-.854c.991-3.712,1.976-7.429,2.781-11.159.143-.671-.361-1.955-.881-2.043-1.992-.345-4.52-.861-6.071-.279-1.675.632-2.7,1.138-4.71.673a13.575,13.575,0,0,0-5.3.033c-3.105.609-5.595-.1-8.3-1.027-4.254-1.464-6.8-4.9-12.083-5.134-.247-.01-.441-.347-.709-.48-.708-.353-1.643-1.053-2.127-.928a2.857,2.857,0,0,0-1.621,1.509c-1.747,3.763-.27,7.284,1.52,10.846a12.781,12.781,0,0,1,1.051,5.213c.08,1.794-1.042,3.769-.327,5.373,1.528,3.426,3.894,6.662,5.962,9.963.15.236.683.387,1.083.5,2.448.723,4.906,1.423,6.5,1.883l5.52-1.655C-370.574,487.159-370.377,487.277-370.183,487.4ZM-552.916,135.362a16.794,16.794,0,0,0,9.213-1.215c2.606-1,2.511-2.609,1.936-4.021-.784-1.933-3.028-1.062-4.727-.6-3.891,1.054-7.748,2.283-11.1-.717-.076-.067-.406.006-.987.028l-3.177,6.067A75.234,75.234,0,0,1-552.916,135.362Zm91.79,25.79a19.671,19.671,0,0,1-.072-4.2c-4.263,1.522-4.464,3.552-4.67,5.709,2.543.33,4.891.635,6.248.813A8.106,8.106,0,0,1-461.126,161.152Zm35.967,31.662c3.014-.942,5.544-1.731,8.069-2.518C-421.845,188.874-423.633,189.5-425.159,192.814Z" transform="translate(808.227 -127.107)" fill="#009e92" opacity="0.18"/>
</svg>
