<svg xmlns="http://www.w3.org/2000/svg" width="120" height="90" viewBox="0 0 120 90">
  <g id="modal-icon" transform="translate(-893.5 -438)">
    <g id="Group_13717" data-name="Group 13717" transform="translate(893.5 438)">
      <rect id="Rectangle_7561" data-name="Rectangle 7561" width="120" height="90" rx="5" fill="#ffe175"/>
    </g>
    <g id="Layer_1" transform="translate(917.864 455.545)">
      <g id="Group_14090" data-name="Group 14090" transform="translate(0 0)">
        <g id="Group_14089" data-name="Group 14089">
          <path id="Path_34003" data-name="Path 34003" d="M5.34,43.5,1.029,15.483a2.338,2.338,0,0,1,3.713-2.226L18.173,23.33a3.209,3.209,0,0,0,4.6-.787L33.95,5.771a2.985,2.985,0,0,1,4.967,0L50.1,22.542a3.209,3.209,0,0,0,4.6.787l13.43-10.073a2.338,2.338,0,0,1,3.713,2.226L67.527,43.5Z" transform="translate(-1 -4.441)" fill="#004540"/>
          <path id="Path_34004" data-name="Path 34004" d="M61.782,33.535H6.079a3.242,3.242,0,0,1-3.242-3.242V23.171H65.024v7.122A3.243,3.243,0,0,1,61.782,33.535Z" transform="translate(1.503 21.073)" fill="#004540"/>
        </g>
      </g>
    </g>
  </g>
</svg>
