<svg xmlns="http://www.w3.org/2000/svg" width="116.837" height="27.511" viewBox="0 0 116.837 27.511">
  <g id="Group_13653" data-name="Group 13653" transform="translate(-185.581 274.755)">
    <g id="Group_13721" data-name="Group 13721" transform="translate(98.805 -652.566)">
      <g id="Group_13718" data-name="Group 13718" transform="translate(137.174 378.856)">
        <path id="Path_24431" data-name="Path 24431" d="M436.649,475.042c1.764,0,1.949.132,2.08.527l1.291,4.213a37.705,37.705,0,0,1,1.132,5.451,38.054,38.054,0,0,1,1.08-5.53l1.132-4.134c.106-.422.369-.527,1.975-.527h.316c1.975,0,2.08.263,1.922.737l-4.372,12.8c-1.5,4.424-3.108,6.5-6.82,6.5a6.224,6.224,0,0,1-2.976-.658c-.368-.237-.29-.527-.027-1.422l.105-.369c.316-1.08.527-1.343.974-1.185a6.515,6.515,0,0,0,1.738.316c1.448,0,2.317-1.106,2.791-2.686l-4.661-13.3c-.158-.474-.053-.737,1.975-.737Z" transform="translate(-433.16 -468.617)" fill="#fff"/>
        <path id="Path_24432" data-name="Path 24432" d="M510.8,481.371v5.978c0,.422-.184.579-2.054.579h-.132c-2.028,0-2.08-.158-2.08-.579v-7.057c0-2-.079-4.187-.184-5.583-.052-.527.079-.685,1.922-.685h.132c1.475,0,1.66.079,1.764.422a5.7,5.7,0,0,1,.132.843,5.339,5.339,0,0,1,3.607-1.527,4.941,4.941,0,0,1,3.792,1.475,5.928,5.928,0,0,1,1.29,4.24v7.873c0,.422-.158.579-2.028.579h-.132c-2.054,0-2.107-.158-2.107-.579v-6.9c0-1.738-.079-2.263-.395-2.633a1.847,1.847,0,0,0-1.422-.527,2.544,2.544,0,0,0-1.475.343,1.469,1.469,0,0,0-.579,1.237C510.8,479.476,510.8,480.423,510.8,481.371Z" transform="translate(-491.329 -467.598)" fill="#fff"/>
        <path id="Path_24433" data-name="Path 24433" d="M584.625,477.1c-.632,1.132-.79,1.185-1.158.921a4.222,4.222,0,0,0-2.554-.815c-1.607,0-2.9,1.106-2.9,3.687,0,2.449,1,3.844,2.976,3.844a5.257,5.257,0,0,0,2.581-.632c.553-.316.685-.237,1.159.974l.158.4c.395.974.448,1.264.132,1.475a7.857,7.857,0,0,1-4.5,1.237,6.871,6.871,0,0,1-4.714-1.58,7.313,7.313,0,0,1-2.159-5.53,7.646,7.646,0,0,1,1.975-5.451,6.923,6.923,0,0,1,5.082-1.871,7.386,7.386,0,0,1,4.477,1.422c.316.238.237.5-.29,1.448Z" transform="translate(-544.823 -467.595)" fill="#fff"/>
        <path id="Path_24434" data-name="Path 24434" d="M639.039,521.248a2.346,2.346,0,1,1-2.449,2.344,2.384,2.384,0,0,1,2.449-2.344Z" transform="translate(-594.854 -505.342)" fill="#ffe175"/>
        <path id="Path_24435" data-name="Path 24435" d="M671.455,474.493c.026-.29.106-.474,1.685-.474h.158c1.633,0,1.871.132,1.871.553,0,1.369-.052,3.186-.052,5.53v1.553c0,1.817.079,4.187.158,5.583.053.527.027.685-1.817.685h-.132c-1.528,0-1.764-.079-1.9-.447a3.833,3.833,0,0,1-.158-.79,3.77,3.77,0,0,1-3.292,1.5c-3.476,0-5.714-2.633-5.714-6.952,0-4.792,2.765-7.479,6.03-7.479a3.906,3.906,0,0,1,3.081,1.343Zm-.605,3.66a2.33,2.33,0,0,0-1.843-.948c-1.606,0-2.37,1.422-2.37,3.923,0,2.133.579,3.712,2.317,3.712a1.964,1.964,0,0,0,1.475-.5c.316-.316.422-.79.422-1.791Z" transform="translate(-615.261 -467.595)" fill="#fff"/>
        <path id="Path_24436" data-name="Path 24436" d="M735.513,443.725a2.463,2.463,0,1,1-2.528,2.474A2.507,2.507,0,0,1,735.513,443.725Z" transform="translate(-671.472 -443.725)" fill="#ffe175"/>
        <path id="Path_24437" data-name="Path 24437" d="M737.276,475.043c1.871,0,2.028.158,2.028.579v12.746c0,.422-.158.579-2.028.579h-.132c-2.054,0-2.107-.158-2.107-.579V475.622c0-.422.053-.579,2.107-.579Z" transform="translate(-673.104 -468.618)" fill="#fff"/>
      </g>
      <g id="Group_13719" data-name="Group 13719" transform="translate(86.776 377.811)">
        <path id="Path_24438" data-name="Path 24438" d="M360.543,441.369c-.527.064-1.059.074-1.589.108A9.384,9.384,0,0,1,353.865,440c-.594-.385-.736-.8-.369-1.4.052-.086.08-.183.126-.272.919-1.739.923-1.747,2.67-.927a6.073,6.073,0,0,0,3.386.578c.764-.1,1.591-.251,1.7-1.212.107-.917-.69-1.12-1.33-1.356-.839-.307-1.711-.521-2.554-.815-2.67-.937-3.818-2.455-3.712-4.865.1-2.219,1.633-3.958,4.159-4.587a8.561,8.561,0,0,1,6.614.951c.573.337.742.716.365,1.288-.091.14-.161.291-.245.435-.889,1.527-.883,1.511-2.5.859a4.652,4.652,0,0,0-3.111-.277c-.57.166-1.073.392-1.168,1.059-.1.708.389,1.033.931,1.237,1.085.4,2.2.72,3.284,1.135a4.661,4.661,0,0,1,3.248,3.089C366.18,437.972,363.962,440.95,360.543,441.369Z" transform="translate(-315.678 -418.226)" fill="#fff"/>
        <path id="Path_24439" data-name="Path 24439" d="M320.9,442.353c0,.656-.315.9-.9.915-.8.016-1.593.006-2.391.008-.658,0-.919-.3-.909-.981.032-2.325.012-4.65.012-6.973s.022-4.65-.012-6.975c-.012-.728.239-1.039.969-1.013.8.03,1.6.014,2.391.012.578,0,.836.277.833.859Q320.883,435.28,320.9,442.353Z" transform="translate(-284.249 -420.343)" fill="#fff"/>
        <path id="Path_24440" data-name="Path 24440" d="M318.5,381.307a2.484,2.484,0,0,1-2.467,2.479,2.436,2.436,0,0,1-2.541-2.474,2.521,2.521,0,0,1,2.431-2.538A2.655,2.655,0,0,1,318.5,381.307Z" transform="translate(-281.496 -378.637)" fill="#ffe175"/>
        <path id="Path_24441" data-name="Path 24441" d="M210.787,398.15c-.036-.273-.056-.6-.371-.63-1-.1-.858-.822-.858-1.474,0-5.076.034-10.155-.016-15.232-.032-3.346.752-2.967-3.083-3-.867-.008-1.152.3-1.133,1.167.05,2.183.016,4.367.016,6.714-3.727-2.576-8.367-.832-9.647,3.655a12.513,12.513,0,0,0,0,7.163c1.24,4.09,5.6,5.842,9.033,3.619.684-.443,1.071-.69,1.683.08a2.418,2.418,0,0,0,2.028.626C210.59,400.814,211.058,400.275,210.787,398.15Zm-5.422-3.31c-.018,1.585-.313,2.048-1.525,2.417a3.151,3.151,0,0,1-3.515-.907c-1.162-1.617-1.1-5.623.116-7.208a3.167,3.167,0,0,1,4.782.171,1.267,1.267,0,0,1,.142.76c.006.862,0,1.72,0,2.582,0,.728.008,1.456,0,2.186Z" transform="translate(-179.872 -377.81)" fill="#fff"/>
        <path id="Path_24442" data-name="Path 24442" d="M100.744,440.332c.028.724-.261,1.056-.963,1.067a.84.84,0,0,0-.1.006c-3.124.239-3.123.239-3.124-2.841,0-2.259.028-4.518-.016-6.776-.048-2.469-1.316-3.38-3.725-2.75a1.82,1.82,0,0,0-1.627,2.046c-.034,2.989-.066,5.98-.018,8.967.016.991-.3,1.356-1.29,1.374-2.9.058-2.9.086-2.9-2.786,0-4.018.068-8.04-.2-12.054-.056-.83.233-1.168,1.049-1.12a8.3,8.3,0,0,0,1.3-.016c.973-.1,1.635.187,1.647,1.483a6.265,6.265,0,0,1,6.162-1.529,4.781,4.781,0,0,1,3.627,4.375,61.292,61.292,0,0,1,.165,7.264C100.755,438.141,100.7,439.237,100.744,440.332Z" transform="translate(-86.776 -418.468)" fill="#fff"/>
      </g>
    </g>
  </g>
</svg>
