<svg xmlns="http://www.w3.org/2000/svg" width="193.855" height="45.583" viewBox="0 0 193.855 45.583">
  <g id="ndisyncmodalimage" transform="translate(-86.773 -377.811)">
    <g id="Group_13718" data-name="Group 13718" transform="translate(170.282 379.543)">
      <path id="Path_24431" data-name="Path 24431" d="M438.941,475.043c2.924,0,3.229.218,3.447.873l2.138,6.981a62.481,62.481,0,0,1,1.876,9.032,63.054,63.054,0,0,1,1.789-9.163l1.876-6.85c.175-.7.611-.873,3.273-.873h.524c3.272,0,3.447.437,3.185,1.222l-7.243,21.205c-2.487,7.331-5.148,10.777-11.3,10.777a10.314,10.314,0,0,1-4.931-1.091c-.611-.393-.48-.873-.044-2.356l.175-.611c.523-1.789.873-2.225,1.615-1.964a10.794,10.794,0,0,0,2.879.524c2.4,0,3.84-1.833,4.625-4.45L435.1,476.265c-.261-.785-.087-1.222,3.272-1.222Z" transform="translate(-433.159 -464.397)" fill="#444"/>
      <path id="Path_24432" data-name="Path 24432" d="M513.732,486.369v9.9c0,.7-.305.96-3.4.96h-.219c-3.36,0-3.447-.261-3.447-.96V484.58c0-3.316-.131-6.937-.306-9.25-.087-.872.131-1.134,3.185-1.134h.219c2.444,0,2.749.131,2.923.7a9.45,9.45,0,0,1,.218,1.4,8.847,8.847,0,0,1,5.977-2.531,8.185,8.185,0,0,1,6.283,2.444c1.484,1.658,2.138,3.8,2.138,7.025v13.046c0,.7-.262.96-3.359.96h-.218c-3.4,0-3.491-.261-3.491-.96V484.842c0-2.88-.131-3.752-.654-4.363a3.061,3.061,0,0,0-2.356-.873,4.215,4.215,0,0,0-2.444.567,2.434,2.434,0,0,0-.96,2.05C513.732,483.228,513.732,484.8,513.732,486.369Z" transform="translate(-481.465 -463.549)" fill="#444"/>
      <path id="Path_24433" data-name="Path 24433" d="M591.838,479.3c-1.047,1.876-1.309,1.963-1.919,1.527a7,7,0,0,0-4.232-1.352c-2.662,0-4.8,1.832-4.8,6.109,0,4.058,1.658,6.37,4.93,6.37a8.709,8.709,0,0,0,4.276-1.047c.917-.524,1.135-.393,1.92,1.614l.262.655c.654,1.614.741,2.094.218,2.443a13.018,13.018,0,0,1-7.461,2.051,11.386,11.386,0,0,1-7.81-2.618,12.118,12.118,0,0,1-3.578-9.163,12.67,12.67,0,0,1,3.272-9.032,11.471,11.471,0,0,1,8.421-3.1,12.24,12.24,0,0,1,7.418,2.356c.523.393.392.829-.48,2.4Z" transform="translate(-525.886 -463.549)" fill="#444"/>
      <path id="Path_24434" data-name="Path 24434" d="M640.648,521.25a3.887,3.887,0,1,1-4.058,3.883A3.948,3.948,0,0,1,640.648,521.25Z" transform="translate(-567.434 -494.896)" fill="#ffe175"/>
      <path id="Path_24435" data-name="Path 24435" d="M677.489,474.981c.043-.48.175-.786,2.792-.786h.262c2.705,0,3.1.218,3.1.917,0,2.269-.087,5.279-.087,9.163v2.574c0,3.011.131,6.938.262,9.25.087.873.044,1.134-3.01,1.134h-.218c-2.531,0-2.923-.131-3.142-.741a6.357,6.357,0,0,1-.262-1.31,6.246,6.246,0,0,1-5.454,2.487c-5.759,0-9.468-4.364-9.468-11.519,0-7.941,4.581-12.392,9.992-12.392a6.47,6.47,0,0,1,5.1,2.226Zm-1,6.065a3.861,3.861,0,0,0-3.054-1.571c-2.662,0-3.927,2.356-3.927,6.5,0,3.534.959,6.152,3.839,6.152a3.254,3.254,0,0,0,2.444-.829c.523-.524.7-1.309.7-2.967Z" transform="translate(-584.378 -463.549)" fill="#444"/>
      <path id="Path_24436" data-name="Path 24436" d="M737.174,443.725a4.081,4.081,0,1,1-4.189,4.1A4.155,4.155,0,0,1,737.174,443.725Z" transform="translate(-631.06 -443.725)" fill="#ffe175"/>
      <path id="Path_24437" data-name="Path 24437" d="M738.747,475.043c3.1,0,3.36.262,3.36.96v21.118c0,.7-.261.96-3.36.96h-.218c-3.4,0-3.491-.261-3.491-.96V476c0-.7.087-.96,3.491-.96Z" transform="translate(-632.415 -464.397)" fill="#444"/>
    </g>
    <g id="Group_13719" data-name="Group 13719" transform="translate(86.773 377.811)">
      <path id="Path_24438" data-name="Path 24438" d="M365.3,452.217c-.872.106-1.754.122-2.633.178a15.548,15.548,0,0,1-8.432-2.438c-.985-.638-1.219-1.332-.611-2.319.086-.142.132-.3.208-.449,1.523-2.881,1.53-2.894,4.424-1.536a10.064,10.064,0,0,0,5.61.958c1.265-.162,2.637-.416,2.822-2.009.178-1.52-1.143-1.857-2.2-2.247-1.391-.509-2.835-.862-4.233-1.351-4.424-1.553-6.327-4.067-6.152-8.062.159-3.677,2.706-6.558,6.892-7.6a14.185,14.185,0,0,1,10.959,1.576c.948.558,1.229,1.186.6,2.134-.152.231-.268.483-.406.72-1.473,2.531-1.464,2.5-4.136,1.424a7.707,7.707,0,0,0-5.154-.459c-.945.274-1.778.651-1.936,1.754-.168,1.173.644,1.711,1.543,2.048,1.8.671,3.651,1.193,5.442,1.88,2.481.952,4.629,2.31,5.382,5.118C374.645,446.591,370.971,451.523,365.3,452.217Z" transform="translate(-290.963 -413.871)" fill="#444"/>
      <path id="Path_24439" data-name="Path 24439" d="M323.659,452.221c0,1.087-.522,1.5-1.49,1.516-1.318.026-2.64.01-3.962.013-1.09,0-1.523-.492-1.507-1.626.053-3.853.02-7.7.02-11.554s.036-7.7-.02-11.557c-.02-1.206.4-1.721,1.606-1.678,1.322.05,2.643.023,3.961.02.958,0,1.385.459,1.381,1.424Q323.629,440.5,323.659,452.221Z" transform="translate(-262.927 -415.751)" fill="#444"/>
      <path id="Path_24440" data-name="Path 24440" d="M321.792,382.971a4.116,4.116,0,0,1-4.087,4.107,4.037,4.037,0,0,1-4.209-4.1,4.176,4.176,0,0,1,4.028-4.206A4.4,4.4,0,0,1,321.792,382.971Z" transform="translate(-260.472 -378.546)" fill="#ffe175"/>
      <path id="Path_24441" data-name="Path 24441" d="M221.046,411.512c-.059-.453-.093-.991-.615-1.044-1.655-.162-1.421-1.361-1.421-2.442,0-8.412.056-16.827-.026-25.239-.053-5.544,1.246-4.916-5.108-4.976-1.437-.013-1.91.5-1.877,1.933.083,3.618.026,7.236.026,11.124-6.175-4.269-13.864-1.378-15.985,6.056a20.734,20.734,0,0,0-.007,11.868c2.055,6.776,9.284,9.681,14.967,6,1.133-.733,1.774-1.143,2.789.132.783.985,2.128,1.047,3.36,1.037C220.719,415.926,221.5,415.034,221.046,411.512Zm-8.984-5.485c-.03,2.627-.519,3.393-2.527,4a5.223,5.223,0,0,1-5.825-1.5c-1.926-2.68-1.82-9.317.192-11.944,1.8-2.356,6.32-2.181,7.923.284a2.1,2.1,0,0,1,.235,1.259c.01,1.427,0,2.851,0,4.279C212.062,403.612,212.076,404.818,212.062,406.027Z" transform="translate(-169.82 -377.811)" fill="#444"/>
      <path id="Path_24442" data-name="Path 24442" d="M109.918,450.305c.046,1.2-.433,1.751-1.6,1.768a1.4,1.4,0,0,0-.165.01c-5.177.4-5.174.4-5.177-4.708,0-3.743.046-7.487-.027-11.227-.079-4.09-2.181-5.6-6.172-4.556-1.933.509-2.673,1.355-2.7,3.39-.056,4.953-.109,9.908-.03,14.858.026,1.642-.5,2.247-2.138,2.276-4.8.1-4.8.142-4.8-4.616,0-6.657.112-13.322-.334-19.973-.092-1.374.387-1.936,1.738-1.857a13.747,13.747,0,0,0,2.147-.026c1.613-.159,2.709.311,2.729,2.458a10.38,10.38,0,0,1,10.209-2.534c3.694.988,5.495,3.614,6.01,7.252.568,4,.182,8.025.274,12.036C109.935,446.674,109.842,448.491,109.918,450.305Z" transform="translate(-86.773 -414.077)" fill="#444"/>
    </g>
  </g>
</svg>
