<svg xmlns="http://www.w3.org/2000/svg" width="20.745" height="20.596" viewBox="0 0 20.745 20.596">
  <g id="network" transform="translate(0 -0.149)">
    <circle id="Ellipse_3180" data-name="Ellipse 3180" cx="2" cy="2" r="2" transform="translate(8.746 0.149)" fill="#fffcf1"/>
    <path id="Path_35059" data-name="Path 35059" d="M6.365,414.961a3.436,3.436,0,0,1-5.032,0A3.038,3.038,0,0,0,0,417.475v.81a.608.608,0,0,0,.608.608H7.091a.608.608,0,0,0,.608-.608v-.81A3.038,3.038,0,0,0,6.365,414.961Z" transform="translate(0 -398.148)" fill="#fffcf1"/>
    <path id="Path_35060" data-name="Path 35060" d="M328.365,414.961a3.436,3.436,0,0,1-5.032,0A3.038,3.038,0,0,0,322,417.475v.81a.608.608,0,0,0,.608.608h6.483a.608.608,0,0,0,.608-.608v-.81A3.038,3.038,0,0,0,328.365,414.961Z" transform="translate(-308.953 -398.148)" fill="#fffcf1"/>
    <path id="Path_35061" data-name="Path 35061" d="M53.076,123.208a2.228,2.228,0,1,0,.147-1.227l-2.65-.823a1.826,1.826,0,0,0-1.214-1.648v-2.617h2.634a.608.608,0,0,0,.608-.608v-.81a3.038,3.038,0,0,0-1.333-2.514,3.437,3.437,0,0,1-5.032,0,3.038,3.038,0,0,0-1.333,2.514v.81a.608.608,0,0,0,.608.608h2.634v2.617a1.826,1.826,0,0,0-1.214,1.648l-2.65.823a2.229,2.229,0,1,0,.147,1.227l2.863-.889a1.822,1.822,0,0,0,2.921,0Z" transform="translate(-38.379 -108.384)" fill="#fffcf1"/>
  </g>
</svg>
