<svg xmlns="http://www.w3.org/2000/svg" xmlns:xlink="http://www.w3.org/1999/xlink" width="94" height="94" viewBox="0 0 94 94">
  <defs>
    <linearGradient id="linear-gradient" x1="0.5" x2="0.5" y2="1" gradientUnits="objectBoundingBox">
      <stop offset="0" stop-color="#004f49"/>
      <stop offset="1" stop-color="#009b8f"/>
    </linearGradient>
  </defs>
  <g id="non_smoker" data-name="non smoker" transform="translate(-951 -3530)">
    <g id="Group_13869" data-name="Group 13869" transform="translate(951 3530)">
      <g id="Group_13859" data-name="Group 13859">
        <rect id="Rectangle_7561" data-name="Rectangle 7561" width="94" height="94" rx="47" fill="url(#linear-gradient)"/>
      </g>
    </g>
    <g id="area" transform="translate(968.855 3547)">
      <path id="Path_33982" data-name="Path 33982" d="M19.393,11.08c.009-.008.017-.017.026-.024s.047-.027.07-.042A29.562,29.562,0,0,1,49.376,8.888,1.21,1.21,0,1,1,48.3,11.054a27.148,27.148,0,0,0-26.4,1.274L35.436,30.289H55.774a1.21,1.21,0,0,1,1.21,1.21v7.765a1.21,1.21,0,0,1-1.21,1.21H43.114L54.442,55.5a27.143,27.143,0,0,0,5.517-33.314,1.21,1.21,0,0,1,2.113-1.177,29.561,29.561,0,0,1-6.91,37.067,1.215,1.215,0,0,1-.173.16c-.028.021-.058.037-.087.055a29.56,29.56,0,1,1-35.51-47.21ZM50.059,38.055V32.708H37.26l4.031,5.346Zm-24.816,0H38.26L34.23,32.708H25.243Zm10.98,24.48a27.012,27.012,0,0,0,16.354-5.492L40.084,40.474H16.673a1.21,1.21,0,0,1-1.21-1.21V31.5a1.21,1.21,0,0,1,1.21-1.21H32.406L19.9,13.7A27.143,27.143,0,0,0,36.223,62.534Z" transform="translate(-6.652 -5.809)" fill="#fff"/>
      <path id="Path_33983" data-name="Path 33983" d="M34.174,34.893a5.8,5.8,0,0,0,.753,3.779,1.21,1.21,0,0,1-2.04,1.3,8.2,8.2,0,0,1-1.078-5.582,9.436,9.436,0,0,1,1.837-3.7,4.135,4.135,0,0,0,1.126-2.475,8.734,8.734,0,0,0-1.11-3.835,1.21,1.21,0,1,1,2.076-1.242,11.119,11.119,0,0,1,1.453,5.077A6.4,6.4,0,0,1,35.6,32.1a7.122,7.122,0,0,0-1.431,2.788Z" transform="translate(15.9 -18.494)" fill="#fff"/>
      <path id="Path_33984" data-name="Path 33984" d="M55.122,18.282a5.416,5.416,0,0,0,.751,3.674,1.21,1.21,0,1,1-2.068,1.256c-.185-.3-1.785-3.041-1-5.634a13,13,0,0,1,1.939-3.911,3.579,3.579,0,0,0,.91-2.274,8.011,8.011,0,0,0-1.049-3.732,1.21,1.21,0,0,1,2.049-1.286,10.387,10.387,0,0,1,1.419,5.018,5.9,5.9,0,0,1-1.331,3.638A10.749,10.749,0,0,0,55.122,18.282Z" transform="translate(-10.049 -5.809)" fill="#fff"/>
    </g>
  </g>
</svg>
