<svg xmlns="http://www.w3.org/2000/svg" width="40.663" height="40.663" viewBox="0 0 40.663 40.663">
  <g id="PremiumUser" transform="translate(0 -0.003)">
    <path id="Path_39874" data-name="Path 39874" d="M39.472,195.706H38.2V172.2a1.191,1.191,0,0,0-1.191-1.191H32.244a1.191,1.191,0,0,0-1.191,1.191v23.508H28.671V180.139a1.191,1.191,0,0,0-1.191-1.191H22.714a1.191,1.191,0,0,0-1.191,1.191v15.566H19.14v-11.2a1.191,1.191,0,0,0-1.191-1.191H13.184a1.191,1.191,0,0,0-1.191,1.191v11.2H9.61v-8.339a1.191,1.191,0,0,0-1.191-1.191H3.653a1.191,1.191,0,0,0-1.191,1.191v8.339H1.191a1.191,1.191,0,0,0,0,2.383h38.28a1.191,1.191,0,0,0,0-2.383Z" transform="translate(0 -157.422)" fill="#00443f"/>
    <path id="Path_39875" data-name="Path 39875" d="M1.191,25.6c7.435,0,15.5-2.67,22.7-7.519A44.015,44.015,0,0,0,37.164,4.465l1.157,4.318a1.291,1.291,0,0,0,1.459.842,1.18,1.18,0,0,0,.842-1.459L38.672.886A1.191,1.191,0,0,0,37.212.044l-7.28,1.951a1.191,1.191,0,0,0,.617,2.3l4.69-1.257A41.356,41.356,0,0,1,22.564,16.1c-6.816,4.587-14.407,7.113-21.373,7.113a1.191,1.191,0,1,0,0,2.383Z" transform="translate(0 0)" fill="#00443f"/>
  </g>
</svg>
