<svg xmlns="http://www.w3.org/2000/svg" width="20.604" height="19.755" viewBox="0 0 20.604 19.755">
  <path id="promoteIcon" d="M29.919,31.188a1.558,1.558,0,0,1,.526,2.759l-1.551-2.686a1.553,1.553,0,0,1,1.025-.073ZM20.251,41.33l2.164-1.249-2.851-4.931L17.4,36.4a2.848,2.848,0,0,0,2.848,4.933Zm4.515,2.829-1.817-3.147-1.7.979,1.817,3.148a.98.98,0,0,0,1.7-.979Zm6.758-6.2-5.568-9.644a.6.6,0,0,0-.537-.311h-.013a.6.6,0,0,0-.539.331c-.2.369-.384.764-.584,1.181a11.54,11.54,0,0,1-3.8,5.078l2.869,4.963a11.54,11.54,0,0,1,6.293-.749c.462.036.9.069,1.316.085a.623.623,0,0,0,.562-.933Zm-1.4-9.9a.537.537,0,1,0,.929.537l1.108-1.919a.537.537,0,0,0-.929-.537L30.125,28.06Zm6.461,5.885a.537.537,0,0,0-.538-.537H33.832a.537.537,0,0,0,0,1.073h2.215A.537.537,0,0,0,36.585,33.945ZM35.3,29.352a.536.536,0,0,0-.732-.2L32.6,30.29a.537.537,0,1,0,.537.929l1.965-1.135a.536.536,0,0,0,.2-.733Z" transform="translate(-15.981 -25.873)" fill="#fff" fill-rule="evenodd"/>
</svg>
