<svg xmlns="http://www.w3.org/2000/svg" width="84" height="84" viewBox="0 0 84 84">
  <g id="redHouse" transform="translate(-911 -424)">
    <circle id="Ellipse_2265" data-name="Ellipse 2265" cx="42" cy="42" r="42" transform="translate(911 424)" fill="#f53546"/>
    <g id="home" transform="translate(929.002 400.006)">
      <g id="Group_15727" data-name="Group 15727" transform="translate(-0.001 46.994)">
        <path id="Path_34012" data-name="Path 34012" d="M83.15,120.939,65.729,135.3a.411.411,0,0,1-.015.091.414.414,0,0,0-.015.09v14.543a1.968,1.968,0,0,0,1.939,1.94H79.271V140.33h7.757v11.635H98.663a1.969,1.969,0,0,0,1.94-1.94V135.482a.426.426,0,0,0-.031-.181Z" transform="translate(-58.726 -113.092)" fill="#fff"/>
        <path id="Path_34013" data-name="Path 34013" d="M48.511,65.931l-6.635-5.514V48.055a.934.934,0,0,0-.97-.969H35.089a.933.933,0,0,0-.97.969v5.908l-7.393-6.181a3.759,3.759,0,0,0-4.6,0L.336,65.931A.88.88,0,0,0,0,66.582a.981.981,0,0,0,.212.712l1.878,2.242a1.033,1.033,0,0,0,.636.333,1.126,1.126,0,0,0,.727-.212L24.424,52.175,45.39,69.658a.934.934,0,0,0,.636.211h.091a1.035,1.035,0,0,0,.636-.333l1.879-2.242a.981.981,0,0,0,.211-.713A.883.883,0,0,0,48.511,65.931Z" transform="translate(0.001 -46.994)" fill="#fff"/>
      </g>
    </g>
  </g>
</svg>
