<svg id="Scheduler" xmlns="http://www.w3.org/2000/svg" width="19.015" height="17.878" viewBox="0 0 19.015 17.878">
  <path id="Path_2682" data-name="Path 2682" d="M468.251,233.112v-9.342c.049,0,.1-.009.148-.009q9.338,0,18.675,0c.157,0,.192.042.192.193q-.007,4.431,0,8.863a1.959,1.959,0,0,1-.055.491,1.787,1.787,0,0,1-1.812,1.342H470.1a1.8,1.8,0,0,1-1.539-.775A2.26,2.26,0,0,1,468.251,233.112Z" transform="translate(-468.251 -216.77)" fill="#fffcf1"/>
  <path id="Path_2683" data-name="Path 2683" d="M468.251,109.7v-3.42a.969.969,0,0,0,.034-.1,1.728,1.728,0,0,1,1.573-1.411c.522-.043,1.051-.01,1.577-.024.162,0,.218.036.208.2a1.564,1.564,0,0,0,.036.584.747.747,0,0,0,1.454-.261c.007-.169-.079-.39.041-.493s.332-.027.5-.028c1.04,0,2.079,0,3.119-.006.186,0,.238.054.218.226a2.354,2.354,0,0,0,0,.349.743.743,0,0,0,1.485,0c0-.141.006-.282,0-.423,0-.1.018-.153.14-.153q1.8.006,3.6,0c.122,0,.145.05.143.154a4.291,4.291,0,0,0,.007.478.72.72,0,0,0,.683.656.732.732,0,0,0,.781-.589,2.3,2.3,0,0,0,.018-.532c0-.127.035-.169.167-.167.452.007.9,0,1.355,0a1.779,1.779,0,0,1,1.869,1.849q0,1.425,0,2.85c0,.28.039.246-.243.246H468.51C468.424,109.686,468.337,109.692,468.251,109.7Z" transform="translate(-468.251 -103.748)" fill="#fffcf1"/>
  <path id="Path_2684" data-name="Path 2684" d="M651.729,86.011c0,.177,0,.355,0,.532a.44.44,0,1,1-.88.007q-.008-.541,0-1.082a.439.439,0,1,1,.879-.007C651.734,85.644,651.729,85.828,651.729,86.011Z" transform="translate(-641.782 -85.017)" fill="#fffcf1"/>
  <path id="Path_2685" data-name="Path 2685" d="M543.459,86.012c0,.183.007.367,0,.55a.423.423,0,0,1-.413.428.415.415,0,0,1-.455-.4c-.016-.39-.016-.782,0-1.172a.425.425,0,0,1,.438-.406.435.435,0,0,1,.43.435C543.466,85.633,543.459,85.823,543.459,86.012Z" transform="translate(-538.888 -85.009)" fill="#fffcf1"/>
  <path id="Path_2686" data-name="Path 2686" d="M759.176,86.008c0-.183-.006-.367,0-.55a.436.436,0,0,1,.422-.443.427.427,0,0,1,.448.415c.016.384.016.77,0,1.154A.417.417,0,0,1,759.6,87a.429.429,0,0,1-.424-.438c0-.012,0-.024,0-.037v-.513Z" transform="translate(-744.736 -85.015)" fill="#fffcf1"/>
</svg>
