<svg xmlns="http://www.w3.org/2000/svg" width="77.326" height="18.207" viewBox="0 0 77.326 18.207">
  <g id="smalllogo" transform="translate(-86.776 -377.811)">
    <g id="Group_13718" data-name="Group 13718" transform="translate(120.131 378.502)">
      <path id="Path_24431" data-name="Path 24431" d="M435.469,475.042c1.168,0,1.29.087,1.377.349l.854,2.788a24.951,24.951,0,0,1,.749,3.607,25.191,25.191,0,0,1,.715-3.66l.749-2.736c.07-.28.244-.349,1.307-.349h.209c1.307,0,1.377.174,1.272.488L439.808,484c-.993,2.928-2.057,4.3-4.513,4.3a4.119,4.119,0,0,1-1.969-.436c-.244-.157-.192-.349-.018-.941l.07-.244c.209-.715.349-.889.645-.784a4.311,4.311,0,0,0,1.15.209c.959,0,1.534-.732,1.847-1.777l-3.085-8.8c-.1-.314-.035-.488,1.307-.488Z" transform="translate(-433.16 -470.79)" fill="#202020"/>
      <path id="Path_24432" data-name="Path 24432" d="M509.294,478.8v3.956c0,.28-.122.383-1.359.383h-.087c-1.342,0-1.377-.1-1.377-.383v-4.671c0-1.324-.052-2.771-.122-3.695-.035-.349.052-.453,1.272-.453h.087c.976,0,1.1.052,1.168.28a3.773,3.773,0,0,1,.087.558,3.534,3.534,0,0,1,2.387-1.011,3.27,3.27,0,0,1,2.51.976,3.923,3.923,0,0,1,.854,2.806v5.211c0,.28-.1.383-1.342.383h-.088c-1.359,0-1.394-.1-1.394-.383v-4.566c0-1.15-.052-1.5-.261-1.743a1.223,1.223,0,0,0-.941-.348,1.683,1.683,0,0,0-.976.227.972.972,0,0,0-.384.819C509.294,477.543,509.294,478.17,509.294,478.8Z" transform="translate(-496.406 -469.682)" fill="#202020"/>
      <path id="Path_24433" data-name="Path 24433" d="M580.912,475.97c-.418.749-.523.784-.767.61a2.794,2.794,0,0,0-1.69-.539c-1.063,0-1.917.732-1.917,2.44,0,1.621.662,2.544,1.969,2.544a3.48,3.48,0,0,0,1.708-.418c.366-.209.453-.157.767.645l.1.261c.261.645.3.836.087.976a5.2,5.2,0,0,1-2.98.819,4.547,4.547,0,0,1-3.12-1.046,4.84,4.84,0,0,1-1.429-3.66,5.06,5.06,0,0,1,1.307-3.607,4.582,4.582,0,0,1,3.363-1.238,4.888,4.888,0,0,1,2.963.941c.209.157.157.331-.192.959Z" transform="translate(-554.57 -469.678)" fill="#202020"/>
      <path id="Path_24434" data-name="Path 24434" d="M638.211,521.248a1.553,1.553,0,1,1-1.621,1.551,1.578,1.578,0,0,1,1.621-1.551Z" transform="translate(-608.968 -510.721)" fill="#009e92"/>
      <path id="Path_24435" data-name="Path 24435" d="M668.347,474.244c.017-.192.07-.314,1.115-.314h.1c1.081,0,1.238.087,1.238.366,0,.906-.035,2.109-.035,3.66v1.028c0,1.2.052,2.771.1,3.695.035.349.018.453-1.2.453h-.087c-1.011,0-1.168-.052-1.255-.3a2.535,2.535,0,0,1-.1-.523,2.5,2.5,0,0,1-2.179.994c-2.3,0-3.782-1.743-3.782-4.6,0-3.172,1.83-4.95,3.991-4.95a2.585,2.585,0,0,1,2.039.889Zm-.4,2.423a1.543,1.543,0,0,0-1.22-.628c-1.063,0-1.568.941-1.568,2.6,0,1.412.383,2.456,1.534,2.456a1.3,1.3,0,0,0,.976-.331c.209-.209.279-.523.279-1.185Z" transform="translate(-631.157 -469.678)" fill="#202020"/>
      <path id="Path_24436" data-name="Path 24436" d="M734.658,443.725a1.63,1.63,0,1,1-1.673,1.638A1.659,1.659,0,0,1,734.658,443.725Z" transform="translate(-692.274 -443.725)" fill="#009e92"/>
      <path id="Path_24437" data-name="Path 24437" d="M736.52,475.043c1.238,0,1.342.1,1.342.383v8.435c0,.28-.1.383-1.342.383h-.087c-1.359,0-1.394-.1-1.394-.383v-8.435c0-.28.035-.383,1.394-.383Z" transform="translate(-694.048 -470.79)" fill="#202020"/>
    </g>
    <g id="Group_13719" data-name="Group 13719" transform="translate(86.776 377.811)">
      <path id="Path_24438" data-name="Path 24438" d="M358.092,435.788c-.348.042-.7.049-1.052.071a6.21,6.21,0,0,1-3.368-.974c-.393-.255-.487-.532-.244-.927.034-.057.053-.121.083-.18.608-1.151.611-1.156,1.767-.614a4.02,4.02,0,0,0,2.241.383c.505-.065,1.053-.166,1.127-.8.071-.607-.457-.742-.88-.9-.556-.2-1.132-.345-1.691-.539-1.767-.62-2.527-1.624-2.456-3.22a3.3,3.3,0,0,1,2.753-3.036,5.665,5.665,0,0,1,4.377.629c.379.223.491.474.242.853-.06.092-.107.193-.162.288-.589,1.011-.585,1-1.652.569a3.079,3.079,0,0,0-2.059-.183c-.377.11-.71.26-.773.7-.067.469.257.684.616.819.718.268,1.458.476,2.173.751a3.084,3.084,0,0,1,2.15,2.044A3.492,3.492,0,0,1,358.092,435.788Z" transform="translate(-328.399 -420.471)" fill="#202020"/>
      <path id="Path_24439" data-name="Path 24439" d="M319.48,437.274c0,.434-.208.6-.6.606-.527.011-1.054,0-1.582.005-.436,0-.608-.2-.6-.649.021-1.539.008-3.077.008-4.615s.015-3.078-.008-4.616c-.008-.482.158-.687.641-.67.528.02,1.056.009,1.582.008.383,0,.553.183.552.569Q319.468,432.592,319.48,437.274Z" transform="translate(-295.223 -422.707)" fill="#202020"/>
      <path id="Path_24440" data-name="Path 24440" d="M316.809,380.45a1.644,1.644,0,0,1-1.632,1.64,1.612,1.612,0,0,1-1.681-1.638,1.668,1.668,0,0,1,1.609-1.68A1.757,1.757,0,0,1,316.809,380.45Z" transform="translate(-292.317 -378.683)" fill="#009e92"/>
      <path id="Path_24441" data-name="Path 24441" d="M205.506,391.271c-.024-.181-.037-.4-.245-.417-.661-.065-.568-.544-.568-.975,0-3.36.023-6.721-.011-10.081-.021-2.214.5-1.964-2.04-1.988-.574-.005-.763.2-.75.772.033,1.445.011,2.89.011,4.443a4.069,4.069,0,0,0-6.385,2.419,8.281,8.281,0,0,0,0,4.74,3.957,3.957,0,0,0,5.978,2.4c.453-.293.709-.457,1.114.053a1.6,1.6,0,0,0,1.342.414C205.375,393.035,205.685,392.678,205.506,391.271Zm-3.588-2.191c-.012,1.049-.207,1.355-1.01,1.6a2.086,2.086,0,0,1-2.327-.6,5.119,5.119,0,0,1,.076-4.771,2.1,2.1,0,0,1,3.165.113.839.839,0,0,1,.094.5c0,.57,0,1.138,0,1.709,0,.482.005.964,0,1.446Z" transform="translate(-185.046 -377.81)" fill="#202020"/>
      <path id="Path_24442" data-name="Path 24442" d="M96.02,435.2c.019.479-.173.7-.637.706a.556.556,0,0,0-.066,0c-2.068.158-2.067.158-2.068-1.88,0-1.5.018-2.99-.011-4.484-.032-1.634-.871-2.237-2.465-1.82a1.2,1.2,0,0,0-1.077,1.354c-.022,1.978-.044,3.958-.012,5.935.011.656-.2.9-.854.909-1.919.038-1.917.057-1.917-1.843,0-2.659.045-5.321-.133-7.977-.037-.549.154-.773.694-.742a5.506,5.506,0,0,0,.858-.01c.644-.063,1.082.124,1.09.982a4.146,4.146,0,0,1,4.078-1.012,3.164,3.164,0,0,1,2.4,2.9,40.566,40.566,0,0,1,.109,4.807C96.027,433.747,95.99,434.473,96.02,435.2Z" transform="translate(-86.776 -420.727)" fill="#202020"/>
    </g>
  </g>
</svg>
