<svg xmlns="http://www.w3.org/2000/svg" xmlns:xlink="http://www.w3.org/1999/xlink" width="94" height="94" viewBox="0 0 94 94">
  <defs>
    <linearGradient id="linear-gradient" x1="0.5" x2="0.5" y2="1" gradientUnits="objectBoundingBox">
      <stop offset="0" stop-color="#004f49"/>
      <stop offset="1" stop-color="#009b8f"/>
    </linearGradient>
  </defs>
  <g id="smoker" transform="translate(-1651 -3530)">
    <g id="non_smoker" data-name="non smoker" transform="translate(700)">
      <g id="Group_13869" data-name="Group 13869" transform="translate(951 3530)">
        <g id="Group_13859" data-name="Group 13859">
          <rect id="Rectangle_7561" data-name="Rectangle 7561" width="94" height="94" rx="47" fill="url(#linear-gradient)"/>
        </g>
      </g>
      <g id="area" transform="translate(963.536 3549)">
        <path id="Subtraction_2" data-name="Subtraction 2" d="M32.035,11.813H28.53l-27.129,0a1.4,1.4,0,0,1-1.4-1.4v-9A1.4,1.4,0,0,1,1.4.006H19.627l0-.006h3.513L46.7.006a1.4,1.4,0,0,1,1.4,1.4v9a1.4,1.4,0,0,1-1.4,1.4H32.034Zm-6.784-9v0l4.669,6.2H40.079v-6.2H25.251Zm-13.92,0h0v6.2H26.414l-4.675-6.2Z" transform="translate(8.814 28.357)" fill="#fff"/>
        <path id="Path_33983" data-name="Path 33983" d="M34.572,36.851a6.72,6.72,0,0,0,.872,4.378,1.4,1.4,0,0,1-2.364,1.506,9.507,9.507,0,0,1-1.25-6.467,10.933,10.933,0,0,1,2.128-4.291,4.791,4.791,0,0,0,1.3-2.868,10.12,10.12,0,0,0-1.286-4.443,1.4,1.4,0,1,1,2.405-1.439,12.883,12.883,0,0,1,1.684,5.883,7.417,7.417,0,0,1-1.837,4.511,8.252,8.252,0,0,0-1.658,3.23Z" transform="translate(22.048 -17.852)" fill="#fff"/>
        <path id="Path_33984" data-name="Path 33984" d="M55.524,20.261c-.465,1.533.47,3.593.87,4.257A1.4,1.4,0,1,1,54,25.973c-.214-.352-2.069-3.523-1.156-6.527a15.057,15.057,0,0,1,2.247-4.532,4.146,4.146,0,0,0,1.054-2.635,9.282,9.282,0,0,0-1.216-4.324A1.4,1.4,0,1,1,57.3,6.465a12.034,12.034,0,0,1,1.644,5.814A6.835,6.835,0,0,1,57.4,16.495,12.454,12.454,0,0,0,55.524,20.261Z" transform="translate(-4.698 -5.809)" fill="#fff"/>
      </g>
    </g>
  </g>
</svg>
