<svg xmlns="http://www.w3.org/2000/svg" width="26.846" height="26.804" viewBox="0 0 26.846 26.804">
  <g id="state-icon" transform="translate(0 0)">
    <g id="Group_14170" data-name="Group 14170" transform="translate(12.648 3.929)">
      <g id="Group_14169" data-name="Group 14169">
        <path id="Path_34019" data-name="Path 34019" d="M242,75.346a.786.786,0,1,0,.786.786A.786.786,0,0,0,242,75.346Z" transform="translate(-241.217 -75.346)" fill="#202020"/>
      </g>
    </g>
    <g id="Group_14172" data-name="Group 14172" transform="translate(8.718 0)">
      <g id="Group_14171" data-name="Group 14171">
        <path id="Path_34020" data-name="Path 34020" d="M170.99.4a4.721,4.721,0,0,0-4.715,4.715c0,1.544.609,2.485,1.945,4.434.722,1.054,1.621,2.365,2.771,4.263,1.141-1.885,2.039-3.195,2.766-4.256,1.338-1.951,1.949-2.894,1.949-4.442A4.721,4.721,0,0,0,170.99.4Zm0,7.073a2.358,2.358,0,1,1,2.358-2.358A2.36,2.36,0,0,1,170.99,7.477Z" transform="translate(-166.275 -0.404)" fill="#202020"/>
      </g>
    </g>
    <g id="Group_14174" data-name="Group 14174" transform="translate(0 7.804)">
      <g id="Group_14173" data-name="Group 14173" transform="translate(0)">
        <path id="Path_34021" data-name="Path 34021" d="M26.3,150.538l-.792-1.242-.59,1.35a3.62,3.62,0,0,1-1.511,1.685,3.945,3.945,0,0,0-1.2,1.188,9.594,9.594,0,0,1-1.381,1.485,2.281,2.281,0,0,1-.166-.458,1.651,1.651,0,0,0-.96-1.162c-.685-.226-1.264.256-1.78.677-.249.2-.41-.086-.28-.416a2.357,2.357,0,0,1,.135-.271l.487-.945a11.875,11.875,0,0,0-1.093-.469c-2.041,2.988-2.647,4.169-3.736,5.922-1.18-1.888-1.637-2.863-4.067-6.409-.277-.4-.514-.76-.745-1.113-1.639-.25-2.361-.349-7.538-1.121-.13.745-.071.914-.538,3.374-1.2,6.345-1.148,7.884,8.069,12.009a6.263,6.263,0,0,1,2.731,1.848,7.06,7.06,0,0,0,2.173,1.685c.634-2.215.605-2.313.639-2.36,2.825-.594,2.25-.456,3.44-.751,1.979-.49,2.029-.487,3.914,2.17l.726,1.025.6-1.1a2.94,2.94,0,0,0,.158-2.7,2.3,2.3,0,0,1,.254-2.591,5.64,5.64,0,0,0,.963-3.169,3.759,3.759,0,0,1,1.27-3.063c.607-.525.834-1.85,1.1-2.373A2.577,2.577,0,0,0,26.3,150.538Z" transform="translate(-0.001 -149.24)" fill="#202020"/>
      </g>
    </g>
  </g>
</svg>
