<svg xmlns="http://www.w3.org/2000/svg" width="26.846" height="26.846" viewBox="0 0 26.846 26.846">
  <g id="suburb-icon" transform="translate(0 0)">
    <path id="Path_34013" data-name="Path 34013" d="M33.274,272.066h-1.2a.791.791,0,0,0-.726.478l-3.333,7.76,7.915-4.042a37.331,37.331,0,0,1-2.652-4.2Zm0,0" transform="translate(-26.543 -257.827)" fill="#202020"/>
    <path id="Path_34014" data-name="Path 34014" d="M183.149,272.544a.79.79,0,0,0-.726-.478h-1.2a42.233,42.233,0,0,1-4.9,7.067,2.373,2.373,0,0,1-3.575,0c-.1-.111-.6-.694-1.294-1.591l-1.427.729,5.4,5.387,10.228-5.3Zm0,0" transform="translate(-161.105 -257.827)" fill="#202020"/>
    <path id="Path_34015" data-name="Path 34015" d="M.5,408.351l-.431,1a.788.788,0,0,0,.726,1.1H12.381a3.2,3.2,0,0,1,.462-.252L7.437,404.8Zm0,0" transform="translate(0 -383.606)" fill="#202020"/>
    <path id="Path_34016" data-name="Path 34016" d="M311.988,423.5l-1.617-3.766-9.382,4.864h10.274a.789.789,0,0,0,.726-1.1Zm0,0" transform="translate(-285.206 -397.753)" fill="#202020"/>
    <path id="Path_34017" data-name="Path 34017" d="M242.521,121.585a.79.79,0,1,0-.79.788A.79.79,0,0,0,242.521,121.585Zm0,0" transform="translate(-228.308 -114.489)" fill="#202020"/>
    <path id="Path_34018" data-name="Path 34018" d="M128.178,20.719c.266-.305,6.51-7.528,6.51-12.494,0-10.239-14.212-10.363-14.212,0,0,4.965,6.244,12.188,6.51,12.494A.791.791,0,0,0,128.178,20.719ZM125.213,7.6a2.369,2.369,0,1,1,2.369,2.364A2.369,2.369,0,0,1,125.213,7.6Zm0,0" transform="translate(-114.159 -0.5)" fill="#202020"/>
  </g>
</svg>
