<svg id="telephone-icon" xmlns="http://www.w3.org/2000/svg" width="21.76" height="21.761" viewBox="0 0 21.76 21.761">
  <path id="Path_24014" data-name="Path 24014" d="M106.813,191a2.646,2.646,0,0,1,1.193.517c.049.041.1.08.145.124.979.976,1.963,1.948,2.935,2.931a2.044,2.044,0,0,1,.339,2.569,1.828,1.828,0,0,1-.969.79,2.14,2.14,0,0,0-1.323,1.179,1.81,1.81,0,0,0-.084,1.223,7.166,7.166,0,0,0,1.627,2.852,9.866,9.866,0,0,0,3.094,2.455,2.767,2.767,0,0,0,1.609.382,1.955,1.955,0,0,0,1.664-1.217,2.255,2.255,0,0,1,.91-1.189,2.012,2.012,0,0,1,2.377.206c.6.543,1.158,1.128,1.729,1.7.521.521,1.062,1.026,1.547,1.579a2.088,2.088,0,0,1,.09,2.544,3.615,3.615,0,0,1-.369.437c-.573.58-1.166,1.141-1.727,1.733a3.048,3.048,0,0,1-2.185.942,7.226,7.226,0,0,1-2.626-.45,17.76,17.76,0,0,1-4.615-2.464,29.953,29.953,0,0,1-6.239-5.988,19.033,19.033,0,0,1-3.144-5.532,7.318,7.318,0,0,1-.46-2.747,3.009,3.009,0,0,1,.935-2.14c.521-.491,1.027-1,1.521-1.517a2.627,2.627,0,0,1,1.556-.919Z" transform="translate(-102.325 -191)" fill="#202020"/>
</svg>
