<svg xmlns="http://www.w3.org/2000/svg" width="120" height="90" viewBox="0 0 120 90">
  <g id="thankyou-icon" transform="translate(-899.545 -246)">
    <rect id="Rectangle_7561" data-name="Rectangle 7561" width="120" height="90" rx="5" transform="translate(899.545 246)" fill="#ffe175"/>
    <g id="thumb-up" transform="translate(927.545 258.572)">
      <path id="Path_34011" data-name="Path 34011" d="M46.054,31.952l-13.141-.019a.941.941,0,0,1-.741-.351.968.968,0,0,1-.2-.75c.285-.864,3.048-9.239,3.228-11.992a5.35,5.35,0,0,0-5.83-5.9A1.86,1.86,0,0,0,27.6,14.357c-.684,2.773-2.3,9.267-8.061,14-3.551,2.906-4.111,5.64-4.13,5.754a1.163,1.163,0,0,0-.019.18v20.88a.945.945,0,0,0,.731.921,12.484,12.484,0,0,1,2.8,1.054,13.757,13.757,0,0,0,6.3,1.443h14.2a9.453,9.453,0,0,0,9.381-8.014L50.745,37.44a4.778,4.778,0,0,0-4.691-5.488Z" fill="#004540"/>
      <rect id="Rectangle_7723" data-name="Rectangle 7723" width="9.495" height="28.485" rx="0.95" transform="translate(4 30.1)" fill="#004540"/>
      <path id="Path_34012" data-name="Path 34012" d="M48.627,7.189a6.789,6.789,0,0,0-10.739,7.843c1.424,3.067,5.308,6.9,10.739,9.476,5.431-2.573,9.315-6.409,10.739-9.476A6.789,6.789,0,0,0,48.627,7.189Z" fill="#004540"/>
    </g>
  </g>
</svg>
