<svg id="uploadicon" xmlns="http://www.w3.org/2000/svg" width="27.532" height="20.649" viewBox="0 0 27.532 20.649">
  <path id="Icon_awesome-image" data-name="Icon awesome-image" d="M24.951,25.149H2.581A2.581,2.581,0,0,1,0,22.568V7.081A2.581,2.581,0,0,1,2.581,4.5h22.37a2.581,2.581,0,0,1,2.581,2.581V22.568A2.581,2.581,0,0,1,24.951,25.149ZM6.023,7.511a3.011,3.011,0,1,0,3.011,3.011A3.011,3.011,0,0,0,6.023,7.511Zm-2.581,14.2H24.091V15.685l-4.706-4.706a.645.645,0,0,0-.913,0l-7.287,7.287L8.2,15.281a.645.645,0,0,0-.913,0L3.442,19.127Z" transform="translate(0 -4.5)" fill="#707070"/>
</svg>
