<svg xmlns="http://www.w3.org/2000/svg" width="15.75" height="15.75" viewBox="0 0 15.75 15.75">
  <path id="WhatsApp" d="M10.268,2.25A7.7,7.7,0,0,0,2.536,9.922a7.593,7.593,0,0,0,1.109,3.962L2.25,18l4.281-1.36A7.745,7.745,0,0,0,18,9.922,7.7,7.7,0,0,0,10.268,2.25Zm3.845,10.586a2,2,0,0,1-1.368.881c-.363.019-.373.281-2.35-.578a8.067,8.067,0,0,1-3.26-3.082A3.792,3.792,0,0,1,6.406,8a2.191,2.191,0,0,1,.752-1.608.757.757,0,0,1,.536-.225c.156,0,.257,0,.372,0s.288-.024.438.374.508,1.376.554,1.476a.358.358,0,0,1,0,.344,1.343,1.343,0,0,1-.21.319c-.1.111-.217.248-.309.332s-.21.2-.1.4a5.917,5.917,0,0,0,1.047,1.4,5.4,5.4,0,0,0,1.55,1.031c.194.106.31.094.43-.033s.515-.554.654-.744.269-.154.448-.082,1.131.582,1.324.687.323.159.369.243A1.624,1.624,0,0,1,14.113,12.836Z" transform="translate(-2.25 -2.25)" fill="#00443f"/>
</svg>
